%FSLAX45Y45*%
G04 Gerber Fmt 4.5, Leading zero omitted, Abs format (unit mm)*
G04 Created by KiCad (PCBNEW 5.1.10-88a1d61d58~90~ubuntu20.04.1) date 2021-11-08 15:06:21*
%MOMM*%
%LPD*%
G01*
G04 APERTURE LIST*
%TA.AperFunction,Profile*%
%ADD10C,0.050000*%
%TD*%
%ADD11C,0.200000*%
%ADD12C,0.300000*%
G04 APERTURE END LIST*
D10*
X8000000Y-9500000D02*
X8000000Y-5500000D01*
X12000000Y-9500000D02*
X8000000Y-9500000D01*
X12000000Y-5500000D02*
X12000000Y-9500000D01*
X8000000Y-5500000D02*
X12000000Y-5500000D01*
D11*
D12*
X8283928Y-9968214D02*
X8283928Y-9668214D01*
X8355357Y-9668214D01*
X8398214Y-9682500D01*
X8426786Y-9711072D01*
X8441071Y-9739643D01*
X8455357Y-9796786D01*
X8455357Y-9839643D01*
X8441071Y-9896786D01*
X8426786Y-9925357D01*
X8398214Y-9953929D01*
X8355357Y-9968214D01*
X8283928Y-9968214D01*
X8583928Y-9968214D02*
X8583928Y-9768214D01*
X8583928Y-9825357D02*
X8598214Y-9796786D01*
X8612500Y-9782500D01*
X8641071Y-9768214D01*
X8669643Y-9768214D01*
X8769643Y-9968214D02*
X8769643Y-9768214D01*
X8769643Y-9668214D02*
X8755357Y-9682500D01*
X8769643Y-9696786D01*
X8783928Y-9682500D01*
X8769643Y-9668214D01*
X8769643Y-9696786D01*
X8955357Y-9968214D02*
X8926786Y-9953929D01*
X8912500Y-9925357D01*
X8912500Y-9668214D01*
X9112500Y-9968214D02*
X9083928Y-9953929D01*
X9069643Y-9925357D01*
X9069643Y-9668214D01*
X9455357Y-9968214D02*
X9455357Y-9668214D01*
X9555357Y-9882500D01*
X9655357Y-9668214D01*
X9655357Y-9968214D01*
X9926786Y-9968214D02*
X9926786Y-9811072D01*
X9912500Y-9782500D01*
X9883928Y-9768214D01*
X9826786Y-9768214D01*
X9798214Y-9782500D01*
X9926786Y-9953929D02*
X9898214Y-9968214D01*
X9826786Y-9968214D01*
X9798214Y-9953929D01*
X9783928Y-9925357D01*
X9783928Y-9896786D01*
X9798214Y-9868214D01*
X9826786Y-9853929D01*
X9898214Y-9853929D01*
X9926786Y-9839643D01*
X10069643Y-9768214D02*
X10069643Y-10068214D01*
X10069643Y-9782500D02*
X10098214Y-9768214D01*
X10155357Y-9768214D01*
X10183928Y-9782500D01*
X10198214Y-9796786D01*
X10212500Y-9825357D01*
X10212500Y-9911072D01*
X10198214Y-9939643D01*
X10183928Y-9953929D01*
X10155357Y-9968214D01*
X10098214Y-9968214D01*
X10069643Y-9953929D01*
X10341071Y-9939643D02*
X10355357Y-9953929D01*
X10341071Y-9968214D01*
X10326786Y-9953929D01*
X10341071Y-9939643D01*
X10341071Y-9968214D01*
X10341071Y-9782500D02*
X10355357Y-9796786D01*
X10341071Y-9811072D01*
X10326786Y-9796786D01*
X10341071Y-9782500D01*
X10341071Y-9811072D01*
M02*
