%FSLAX45Y45*%
G04 Gerber Fmt 4.5, Leading zero omitted, Abs format (unit mm)*
G04 Created by KiCad (PCBNEW 5.1.10-88a1d61d58~90~ubuntu20.04.1) date 2021-11-08 15:06:21*
%MOMM*%
%LPD*%
G01*
G04 APERTURE LIST*
%TA.AperFunction,Profile*%
%ADD10C,0.050000*%
%TD*%
%ADD11C,0.200000*%
%ADD12C,0.300000*%
G04 APERTURE END LIST*
D10*
X8000000Y-9500000D02*
X8000000Y-5500000D01*
X12000000Y-9500000D02*
X8000000Y-9500000D01*
X12000000Y-5500000D02*
X12000000Y-9500000D01*
X8000000Y-5500000D02*
X12000000Y-5500000D01*
D11*
X8080000Y-5580000D02*
X8120000Y-5620000D01*
X8120000Y-5580000D02*
X8080000Y-5620000D01*
X8080000Y-5780000D02*
X8120000Y-5820000D01*
X8120000Y-5780000D02*
X8080000Y-5820000D01*
X8080000Y-5980000D02*
X8120000Y-6020000D01*
X8120000Y-5980000D02*
X8080000Y-6020000D01*
X8080000Y-6180000D02*
X8120000Y-6220000D01*
X8120000Y-6180000D02*
X8080000Y-6220000D01*
X8080000Y-6380000D02*
X8120000Y-6420000D01*
X8120000Y-6380000D02*
X8080000Y-6420000D01*
X8080000Y-6580000D02*
X8120000Y-6620000D01*
X8120000Y-6580000D02*
X8080000Y-6620000D01*
X8080000Y-6780000D02*
X8120000Y-6820000D01*
X8120000Y-6780000D02*
X8080000Y-6820000D01*
X8080000Y-6980000D02*
X8120000Y-7020000D01*
X8120000Y-6980000D02*
X8080000Y-7020000D01*
X8080000Y-7180000D02*
X8120000Y-7220000D01*
X8120000Y-7180000D02*
X8080000Y-7220000D01*
X8080000Y-7380000D02*
X8120000Y-7420000D01*
X8120000Y-7380000D02*
X8080000Y-7420000D01*
X8080000Y-7580000D02*
X8120000Y-7620000D01*
X8120000Y-7580000D02*
X8080000Y-7620000D01*
X8080000Y-7780000D02*
X8120000Y-7820000D01*
X8120000Y-7780000D02*
X8080000Y-7820000D01*
X8080000Y-7980000D02*
X8120000Y-8020000D01*
X8120000Y-7980000D02*
X8080000Y-8020000D01*
X8080000Y-8180000D02*
X8120000Y-8220000D01*
X8120000Y-8180000D02*
X8080000Y-8220000D01*
X8080000Y-8380000D02*
X8120000Y-8420000D01*
X8120000Y-8380000D02*
X8080000Y-8420000D01*
X8080000Y-8580000D02*
X8120000Y-8620000D01*
X8120000Y-8580000D02*
X8080000Y-8620000D01*
X8080000Y-8780000D02*
X8120000Y-8820000D01*
X8120000Y-8780000D02*
X8080000Y-8820000D01*
X8080000Y-8980000D02*
X8120000Y-9020000D01*
X8120000Y-8980000D02*
X8080000Y-9020000D01*
X8080000Y-9180000D02*
X8120000Y-9220000D01*
X8120000Y-9180000D02*
X8080000Y-9220000D01*
X8080000Y-9380000D02*
X8120000Y-9420000D01*
X8120000Y-9380000D02*
X8080000Y-9420000D01*
X8230000Y-5580000D02*
X8270000Y-5620000D01*
X8270000Y-5580000D02*
X8230000Y-5620000D01*
X8280000Y-9380000D02*
X8320000Y-9420000D01*
X8320000Y-9380000D02*
X8280000Y-9420000D01*
X8380000Y-5580000D02*
X8420000Y-5620000D01*
X8420000Y-5580000D02*
X8380000Y-5620000D01*
X8380000Y-6080000D02*
X8420000Y-6120000D01*
X8420000Y-6080000D02*
X8380000Y-6120000D01*
X8480000Y-6380000D02*
X8520000Y-6420000D01*
X8520000Y-6380000D02*
X8480000Y-6420000D01*
X8480000Y-9380000D02*
X8520000Y-9420000D01*
X8520000Y-9380000D02*
X8480000Y-9420000D01*
X8530000Y-5580000D02*
X8570000Y-5620000D01*
X8570000Y-5580000D02*
X8530000Y-5620000D01*
X8530000Y-8230000D02*
X8570000Y-8270000D01*
X8570000Y-8230000D02*
X8530000Y-8270000D01*
X8530000Y-8330000D02*
X8570000Y-8370000D01*
X8570000Y-8330000D02*
X8530000Y-8370000D01*
X8530000Y-8430000D02*
X8570000Y-8470000D01*
X8570000Y-8430000D02*
X8530000Y-8470000D01*
X8530000Y-8530000D02*
X8570000Y-8570000D01*
X8570000Y-8530000D02*
X8530000Y-8570000D01*
X8630000Y-5730000D02*
X8670000Y-5770000D01*
X8670000Y-5730000D02*
X8630000Y-5770000D01*
X8630000Y-5830000D02*
X8670000Y-5870000D01*
X8670000Y-5830000D02*
X8630000Y-5870000D01*
X8630000Y-5930000D02*
X8670000Y-5970000D01*
X8670000Y-5930000D02*
X8630000Y-5970000D01*
X8630000Y-6030000D02*
X8670000Y-6070000D01*
X8670000Y-6030000D02*
X8630000Y-6070000D01*
X8630000Y-7230000D02*
X8670000Y-7270000D01*
X8670000Y-7230000D02*
X8630000Y-7270000D01*
X8630000Y-7330000D02*
X8670000Y-7370000D01*
X8670000Y-7330000D02*
X8630000Y-7370000D01*
X8630000Y-7430000D02*
X8670000Y-7470000D01*
X8670000Y-7430000D02*
X8630000Y-7470000D01*
X8630000Y-7530000D02*
X8670000Y-7570000D01*
X8670000Y-7530000D02*
X8630000Y-7570000D01*
X8630000Y-7630000D02*
X8670000Y-7670000D01*
X8670000Y-7630000D02*
X8630000Y-7670000D01*
X8630000Y-8230000D02*
X8670000Y-8270000D01*
X8670000Y-8230000D02*
X8630000Y-8270000D01*
X8630000Y-8630000D02*
X8670000Y-8670000D01*
X8670000Y-8630000D02*
X8630000Y-8670000D01*
X8630000Y-8730000D02*
X8670000Y-8770000D01*
X8670000Y-8730000D02*
X8630000Y-8770000D01*
X8630000Y-8830000D02*
X8670000Y-8870000D01*
X8670000Y-8830000D02*
X8630000Y-8870000D01*
X8680000Y-5580000D02*
X8720000Y-5620000D01*
X8720000Y-5580000D02*
X8680000Y-5620000D01*
X8680000Y-9380000D02*
X8720000Y-9420000D01*
X8720000Y-9380000D02*
X8680000Y-9420000D01*
X8730000Y-6030000D02*
X8770000Y-6070000D01*
X8770000Y-6030000D02*
X8730000Y-6070000D01*
X8730000Y-7230000D02*
X8770000Y-7270000D01*
X8770000Y-7230000D02*
X8730000Y-7270000D01*
X8830000Y-5580000D02*
X8870000Y-5620000D01*
X8870000Y-5580000D02*
X8830000Y-5620000D01*
X8830000Y-6030000D02*
X8870000Y-6070000D01*
X8870000Y-6030000D02*
X8830000Y-6070000D01*
X8830000Y-7230000D02*
X8870000Y-7270000D01*
X8870000Y-7230000D02*
X8830000Y-7270000D01*
X8880000Y-9380000D02*
X8920000Y-9420000D01*
X8920000Y-9380000D02*
X8880000Y-9420000D01*
X8980000Y-5580000D02*
X9020000Y-5620000D01*
X9020000Y-5580000D02*
X8980000Y-5620000D01*
X9080000Y-9380000D02*
X9120000Y-9420000D01*
X9120000Y-9380000D02*
X9080000Y-9420000D01*
X9130000Y-5580000D02*
X9170000Y-5620000D01*
X9170000Y-5580000D02*
X9130000Y-5620000D01*
X9280000Y-5580000D02*
X9320000Y-5620000D01*
X9320000Y-5580000D02*
X9280000Y-5620000D01*
X9280000Y-5680000D02*
X9320000Y-5720000D01*
X9320000Y-5680000D02*
X9280000Y-5720000D01*
X9280000Y-5760000D02*
X9320000Y-5800000D01*
X9320000Y-5760000D02*
X9280000Y-5800000D01*
X9280000Y-6480000D02*
X9320000Y-6520000D01*
X9320000Y-6480000D02*
X9280000Y-6520000D01*
X9280000Y-6580000D02*
X9320000Y-6620000D01*
X9320000Y-6580000D02*
X9280000Y-6620000D01*
X9280000Y-6980000D02*
X9320000Y-7020000D01*
X9320000Y-6980000D02*
X9280000Y-7020000D01*
X9280000Y-9380000D02*
X9320000Y-9420000D01*
X9320000Y-9380000D02*
X9280000Y-9420000D01*
X9380000Y-6680000D02*
X9420000Y-6720000D01*
X9420000Y-6680000D02*
X9380000Y-6720000D01*
X9430000Y-7230000D02*
X9470000Y-7270000D01*
X9470000Y-7230000D02*
X9430000Y-7270000D01*
X9530000Y-7630000D02*
X9570000Y-7670000D01*
X9570000Y-7630000D02*
X9530000Y-7670000D01*
X9580000Y-5730000D02*
X9620000Y-5770000D01*
X9620000Y-5730000D02*
X9580000Y-5770000D01*
X9580000Y-5880000D02*
X9620000Y-5920000D01*
X9620000Y-5880000D02*
X9580000Y-5920000D01*
X9580000Y-6080000D02*
X9620000Y-6120000D01*
X9620000Y-6080000D02*
X9580000Y-6120000D01*
X9580000Y-6280000D02*
X9620000Y-6320000D01*
X9620000Y-6280000D02*
X9580000Y-6320000D01*
X9580000Y-6430000D02*
X9620000Y-6470000D01*
X9620000Y-6430000D02*
X9580000Y-6470000D01*
X9660000Y-6680000D02*
X9700000Y-6720000D01*
X9700000Y-6680000D02*
X9660000Y-6720000D01*
X9730000Y-7630000D02*
X9770000Y-7670000D01*
X9770000Y-7630000D02*
X9730000Y-7670000D01*
X9780000Y-5730000D02*
X9820000Y-5770000D01*
X9820000Y-5730000D02*
X9780000Y-5770000D01*
X9780000Y-6430000D02*
X9820000Y-6470000D01*
X9820000Y-6430000D02*
X9780000Y-6470000D01*
X9850000Y-8910000D02*
X9890000Y-8950000D01*
X9890000Y-8910000D02*
X9850000Y-8950000D01*
X9880000Y-7880000D02*
X9920000Y-7920000D01*
X9920000Y-7880000D02*
X9880000Y-7920000D01*
X9930000Y-7230000D02*
X9970000Y-7270000D01*
X9970000Y-7230000D02*
X9930000Y-7270000D01*
X9980000Y-5730000D02*
X10020000Y-5770000D01*
X10020000Y-5730000D02*
X9980000Y-5770000D01*
X9980000Y-6430000D02*
X10020000Y-6470000D01*
X10020000Y-6430000D02*
X9980000Y-6470000D01*
X10080000Y-7630000D02*
X10120000Y-7670000D01*
X10120000Y-7630000D02*
X10080000Y-7670000D01*
X10110000Y-8910000D02*
X10150000Y-8950000D01*
X10150000Y-8910000D02*
X10110000Y-8950000D01*
X10110000Y-9150000D02*
X10150000Y-9190000D01*
X10150000Y-9150000D02*
X10110000Y-9190000D01*
X10130000Y-7130000D02*
X10170000Y-7170000D01*
X10170000Y-7130000D02*
X10130000Y-7170000D01*
X10180000Y-5730000D02*
X10220000Y-5770000D01*
X10220000Y-5730000D02*
X10180000Y-5770000D01*
X10180000Y-6430000D02*
X10220000Y-6470000D01*
X10220000Y-6430000D02*
X10180000Y-6470000D01*
X10180000Y-6780000D02*
X10220000Y-6820000D01*
X10220000Y-6780000D02*
X10180000Y-6820000D01*
X10180000Y-6930000D02*
X10220000Y-6970000D01*
X10220000Y-6930000D02*
X10180000Y-6970000D01*
X10380000Y-5730000D02*
X10420000Y-5770000D01*
X10420000Y-5730000D02*
X10380000Y-5770000D01*
X10380000Y-5880000D02*
X10420000Y-5920000D01*
X10420000Y-5880000D02*
X10380000Y-5920000D01*
X10380000Y-6080000D02*
X10420000Y-6120000D01*
X10420000Y-6080000D02*
X10380000Y-6120000D01*
X10380000Y-6280000D02*
X10420000Y-6320000D01*
X10420000Y-6280000D02*
X10380000Y-6320000D01*
X10380000Y-6430000D02*
X10420000Y-6470000D01*
X10420000Y-6430000D02*
X10380000Y-6470000D01*
X10430000Y-7630000D02*
X10470000Y-7670000D01*
X10470000Y-7630000D02*
X10430000Y-7670000D01*
X10580000Y-6680000D02*
X10620000Y-6720000D01*
X10620000Y-6680000D02*
X10580000Y-6720000D01*
X10680000Y-5580000D02*
X10720000Y-5620000D01*
X10720000Y-5580000D02*
X10680000Y-5620000D01*
X10680000Y-6580000D02*
X10720000Y-6620000D01*
X10720000Y-6580000D02*
X10680000Y-6620000D01*
X10680000Y-9380000D02*
X10720000Y-9420000D01*
X10720000Y-9380000D02*
X10680000Y-9420000D01*
X10730000Y-7130000D02*
X10770000Y-7170000D01*
X10770000Y-7130000D02*
X10730000Y-7170000D01*
X10780000Y-5930000D02*
X10820000Y-5970000D01*
X10820000Y-5930000D02*
X10780000Y-5970000D01*
X10780000Y-6180000D02*
X10820000Y-6220000D01*
X10820000Y-6180000D02*
X10780000Y-6220000D01*
X10830000Y-7630000D02*
X10870000Y-7670000D01*
X10870000Y-7630000D02*
X10830000Y-7670000D01*
X10880000Y-5580000D02*
X10920000Y-5620000D01*
X10920000Y-5580000D02*
X10880000Y-5620000D01*
X10880000Y-9380000D02*
X10920000Y-9420000D01*
X10920000Y-9380000D02*
X10880000Y-9420000D01*
X10930000Y-5780000D02*
X10970000Y-5820000D01*
X10970000Y-5780000D02*
X10930000Y-5820000D01*
X11080000Y-5580000D02*
X11120000Y-5620000D01*
X11120000Y-5580000D02*
X11080000Y-5620000D01*
X11080000Y-9380000D02*
X11120000Y-9420000D01*
X11120000Y-9380000D02*
X11080000Y-9420000D01*
X11130000Y-6880000D02*
X11170000Y-6920000D01*
X11170000Y-6880000D02*
X11130000Y-6920000D01*
X11180000Y-7630000D02*
X11220000Y-7670000D01*
X11220000Y-7630000D02*
X11180000Y-7670000D01*
X11180000Y-8230000D02*
X11220000Y-8270000D01*
X11220000Y-8230000D02*
X11180000Y-8270000D01*
X11180000Y-8680000D02*
X11220000Y-8720000D01*
X11220000Y-8680000D02*
X11180000Y-8720000D01*
X11230000Y-5880000D02*
X11270000Y-5920000D01*
X11270000Y-5880000D02*
X11230000Y-5920000D01*
X11230000Y-6180000D02*
X11270000Y-6220000D01*
X11270000Y-6180000D02*
X11230000Y-6220000D01*
X11280000Y-5580000D02*
X11320000Y-5620000D01*
X11320000Y-5580000D02*
X11280000Y-5620000D01*
X11280000Y-9380000D02*
X11320000Y-9420000D01*
X11320000Y-9380000D02*
X11280000Y-9420000D01*
X11480000Y-5580000D02*
X11520000Y-5620000D01*
X11520000Y-5580000D02*
X11480000Y-5620000D01*
X11480000Y-9380000D02*
X11520000Y-9420000D01*
X11520000Y-9380000D02*
X11480000Y-9420000D01*
X11680000Y-5580000D02*
X11720000Y-5620000D01*
X11720000Y-5580000D02*
X11680000Y-5620000D01*
X11680000Y-9380000D02*
X11720000Y-9420000D01*
X11720000Y-9380000D02*
X11680000Y-9420000D01*
X11880000Y-5580000D02*
X11920000Y-5620000D01*
X11920000Y-5580000D02*
X11880000Y-5620000D01*
X11880000Y-5780000D02*
X11920000Y-5820000D01*
X11920000Y-5780000D02*
X11880000Y-5820000D01*
X11880000Y-5980000D02*
X11920000Y-6020000D01*
X11920000Y-5980000D02*
X11880000Y-6020000D01*
X11880000Y-6180000D02*
X11920000Y-6220000D01*
X11920000Y-6180000D02*
X11880000Y-6220000D01*
X11880000Y-6380000D02*
X11920000Y-6420000D01*
X11920000Y-6380000D02*
X11880000Y-6420000D01*
X11880000Y-6580000D02*
X11920000Y-6620000D01*
X11920000Y-6580000D02*
X11880000Y-6620000D01*
X11880000Y-6780000D02*
X11920000Y-6820000D01*
X11920000Y-6780000D02*
X11880000Y-6820000D01*
X11880000Y-6980000D02*
X11920000Y-7020000D01*
X11920000Y-6980000D02*
X11880000Y-7020000D01*
X11880000Y-7180000D02*
X11920000Y-7220000D01*
X11920000Y-7180000D02*
X11880000Y-7220000D01*
X11880000Y-7380000D02*
X11920000Y-7420000D01*
X11920000Y-7380000D02*
X11880000Y-7420000D01*
X11880000Y-7580000D02*
X11920000Y-7620000D01*
X11920000Y-7580000D02*
X11880000Y-7620000D01*
X11880000Y-7780000D02*
X11920000Y-7820000D01*
X11920000Y-7780000D02*
X11880000Y-7820000D01*
X11880000Y-7980000D02*
X11920000Y-8020000D01*
X11920000Y-7980000D02*
X11880000Y-8020000D01*
X11880000Y-8180000D02*
X11920000Y-8220000D01*
X11920000Y-8180000D02*
X11880000Y-8220000D01*
X11880000Y-8380000D02*
X11920000Y-8420000D01*
X11920000Y-8380000D02*
X11880000Y-8420000D01*
X11880000Y-8580000D02*
X11920000Y-8620000D01*
X11920000Y-8580000D02*
X11880000Y-8620000D01*
X11880000Y-8780000D02*
X11920000Y-8820000D01*
X11920000Y-8780000D02*
X11880000Y-8820000D01*
X11880000Y-8980000D02*
X11920000Y-9020000D01*
X11920000Y-8980000D02*
X11880000Y-9020000D01*
X11880000Y-9180000D02*
X11920000Y-9220000D01*
X11920000Y-9180000D02*
X11880000Y-9220000D01*
X11880000Y-9380000D02*
X11920000Y-9420000D01*
X11920000Y-9380000D02*
X11880000Y-9420000D01*
X9680000Y-9323750D02*
G75*
G03*
X9680000Y-9323750I-30000J0D01*
G01*
X9670000Y-9358750D02*
X9670000Y-9288750D01*
X9630000Y-9358750D02*
X9630000Y-9288750D01*
X9670000Y-9288750D02*
G75*
G03*
X9630000Y-9288750I-20000J0D01*
G01*
X9630000Y-9358750D02*
G75*
G03*
X9670000Y-9358750I20000J0D01*
G01*
X10380000Y-9323750D02*
G75*
G03*
X10380000Y-9323750I-30000J0D01*
G01*
X10330000Y-9288750D02*
X10330000Y-9358750D01*
X10370000Y-9288750D02*
X10370000Y-9358750D01*
X10330000Y-9358750D02*
G75*
G03*
X10370000Y-9358750I20000J0D01*
G01*
X10370000Y-9288750D02*
G75*
G03*
X10330000Y-9288750I-20000J0D01*
G01*
X9750000Y-9011250D02*
X9750000Y-9096250D01*
X9707500Y-9053750D02*
X9792500Y-9053750D01*
X10250000Y-9011250D02*
X10250000Y-9096250D01*
X10207500Y-9053750D02*
X10292500Y-9053750D01*
X8731356Y-6935356D02*
X8731356Y-6864644D01*
X8660644Y-6864644D01*
X8660644Y-6935356D01*
X8731356Y-6935356D01*
X8731356Y-9185356D02*
X8731356Y-9114644D01*
X8660644Y-9114644D01*
X8660644Y-9185356D01*
X8731356Y-9185356D01*
X8985356Y-6935356D02*
X8985356Y-6864644D01*
X8914644Y-6864644D01*
X8914644Y-6935356D01*
X8985356Y-6935356D01*
X8985356Y-9185356D02*
X8985356Y-9114644D01*
X8914644Y-9114644D01*
X8914644Y-9185356D01*
X8985356Y-9185356D01*
X9785356Y-8585356D02*
X9785356Y-8514644D01*
X9714644Y-8514644D01*
X9714644Y-8585356D01*
X9785356Y-8585356D01*
X11735356Y-5881356D02*
X11735356Y-5810644D01*
X11664644Y-5810644D01*
X11664644Y-5881356D01*
X11735356Y-5881356D01*
X11735356Y-6135356D02*
X11735356Y-6064644D01*
X11664644Y-6064644D01*
X11664644Y-6135356D01*
X11735356Y-6135356D01*
X11735356Y-6389356D02*
X11735356Y-6318644D01*
X11664644Y-6318644D01*
X11664644Y-6389356D01*
X11735356Y-6389356D01*
X11735356Y-7908356D02*
X11735356Y-7837644D01*
X11664644Y-7837644D01*
X11664644Y-7908356D01*
X11735356Y-7908356D01*
X11735356Y-8162356D02*
X11735356Y-8091644D01*
X11664644Y-8091644D01*
X11664644Y-8162356D01*
X11735356Y-8162356D01*
X11735356Y-8931356D02*
X11735356Y-8860644D01*
X11664644Y-8860644D01*
X11664644Y-8931356D01*
X11735356Y-8931356D01*
X11735356Y-9185356D02*
X11735356Y-9114644D01*
X11664644Y-9114644D01*
X11664644Y-9185356D01*
X11735356Y-9185356D01*
D12*
X8283928Y-9968214D02*
X8283928Y-9668214D01*
X8355357Y-9668214D01*
X8398214Y-9682500D01*
X8426786Y-9711072D01*
X8441071Y-9739643D01*
X8455357Y-9796786D01*
X8455357Y-9839643D01*
X8441071Y-9896786D01*
X8426786Y-9925357D01*
X8398214Y-9953929D01*
X8355357Y-9968214D01*
X8283928Y-9968214D01*
X8583928Y-9968214D02*
X8583928Y-9768214D01*
X8583928Y-9825357D02*
X8598214Y-9796786D01*
X8612500Y-9782500D01*
X8641071Y-9768214D01*
X8669643Y-9768214D01*
X8769643Y-9968214D02*
X8769643Y-9768214D01*
X8769643Y-9668214D02*
X8755357Y-9682500D01*
X8769643Y-9696786D01*
X8783928Y-9682500D01*
X8769643Y-9668214D01*
X8769643Y-9696786D01*
X8955357Y-9968214D02*
X8926786Y-9953929D01*
X8912500Y-9925357D01*
X8912500Y-9668214D01*
X9112500Y-9968214D02*
X9083928Y-9953929D01*
X9069643Y-9925357D01*
X9069643Y-9668214D01*
X9455357Y-9968214D02*
X9455357Y-9668214D01*
X9555357Y-9882500D01*
X9655357Y-9668214D01*
X9655357Y-9968214D01*
X9926786Y-9968214D02*
X9926786Y-9811072D01*
X9912500Y-9782500D01*
X9883928Y-9768214D01*
X9826786Y-9768214D01*
X9798214Y-9782500D01*
X9926786Y-9953929D02*
X9898214Y-9968214D01*
X9826786Y-9968214D01*
X9798214Y-9953929D01*
X9783928Y-9925357D01*
X9783928Y-9896786D01*
X9798214Y-9868214D01*
X9826786Y-9853929D01*
X9898214Y-9853929D01*
X9926786Y-9839643D01*
X10069643Y-9768214D02*
X10069643Y-10068214D01*
X10069643Y-9782500D02*
X10098214Y-9768214D01*
X10155357Y-9768214D01*
X10183928Y-9782500D01*
X10198214Y-9796786D01*
X10212500Y-9825357D01*
X10212500Y-9911072D01*
X10198214Y-9939643D01*
X10183928Y-9953929D01*
X10155357Y-9968214D01*
X10098214Y-9968214D01*
X10069643Y-9953929D01*
X10341071Y-9939643D02*
X10355357Y-9953929D01*
X10341071Y-9968214D01*
X10326786Y-9953929D01*
X10341071Y-9939643D01*
X10341071Y-9968214D01*
X10341071Y-9782500D02*
X10355357Y-9796786D01*
X10341071Y-9811072D01*
X10326786Y-9796786D01*
X10341071Y-9782500D01*
X10341071Y-9811072D01*
X7957500Y-10442500D02*
X7997500Y-10482500D01*
X7997500Y-10442500D02*
X7957500Y-10482500D01*
X8341071Y-10298214D02*
X8369643Y-10298214D01*
X8398214Y-10312500D01*
X8412500Y-10326786D01*
X8426786Y-10355357D01*
X8441071Y-10412500D01*
X8441071Y-10483929D01*
X8426786Y-10541072D01*
X8412500Y-10569643D01*
X8398214Y-10583929D01*
X8369643Y-10598214D01*
X8341071Y-10598214D01*
X8312500Y-10583929D01*
X8298214Y-10569643D01*
X8283928Y-10541072D01*
X8269643Y-10483929D01*
X8269643Y-10412500D01*
X8283928Y-10355357D01*
X8298214Y-10326786D01*
X8312500Y-10312500D01*
X8341071Y-10298214D01*
X8569643Y-10569643D02*
X8583928Y-10583929D01*
X8569643Y-10598214D01*
X8555357Y-10583929D01*
X8569643Y-10569643D01*
X8569643Y-10598214D01*
X8841071Y-10398214D02*
X8841071Y-10598214D01*
X8769643Y-10283929D02*
X8698214Y-10498214D01*
X8883928Y-10498214D01*
X9055357Y-10298214D02*
X9083928Y-10298214D01*
X9112500Y-10312500D01*
X9126786Y-10326786D01*
X9141071Y-10355357D01*
X9155357Y-10412500D01*
X9155357Y-10483929D01*
X9141071Y-10541072D01*
X9126786Y-10569643D01*
X9112500Y-10583929D01*
X9083928Y-10598214D01*
X9055357Y-10598214D01*
X9026786Y-10583929D01*
X9012500Y-10569643D01*
X8998214Y-10541072D01*
X8983928Y-10483929D01*
X8983928Y-10412500D01*
X8998214Y-10355357D01*
X9012500Y-10326786D01*
X9026786Y-10312500D01*
X9055357Y-10298214D01*
X9341071Y-10298214D02*
X9369643Y-10298214D01*
X9398214Y-10312500D01*
X9412500Y-10326786D01*
X9426786Y-10355357D01*
X9441071Y-10412500D01*
X9441071Y-10483929D01*
X9426786Y-10541072D01*
X9412500Y-10569643D01*
X9398214Y-10583929D01*
X9369643Y-10598214D01*
X9341071Y-10598214D01*
X9312500Y-10583929D01*
X9298214Y-10569643D01*
X9283928Y-10541072D01*
X9269643Y-10483929D01*
X9269643Y-10412500D01*
X9283928Y-10355357D01*
X9298214Y-10326786D01*
X9312500Y-10312500D01*
X9341071Y-10298214D01*
X9569643Y-10598214D02*
X9569643Y-10398214D01*
X9569643Y-10426786D02*
X9583928Y-10412500D01*
X9612500Y-10398214D01*
X9655357Y-10398214D01*
X9683928Y-10412500D01*
X9698214Y-10441072D01*
X9698214Y-10598214D01*
X9698214Y-10441072D02*
X9712500Y-10412500D01*
X9741071Y-10398214D01*
X9783928Y-10398214D01*
X9812500Y-10412500D01*
X9826786Y-10441072D01*
X9826786Y-10598214D01*
X9969643Y-10598214D02*
X9969643Y-10398214D01*
X9969643Y-10426786D02*
X9983928Y-10412500D01*
X10012500Y-10398214D01*
X10055357Y-10398214D01*
X10083928Y-10412500D01*
X10098214Y-10441072D01*
X10098214Y-10598214D01*
X10098214Y-10441072D02*
X10112500Y-10412500D01*
X10141071Y-10398214D01*
X10183928Y-10398214D01*
X10212500Y-10412500D01*
X10226786Y-10441072D01*
X10226786Y-10598214D01*
X10812500Y-10283929D02*
X10555357Y-10669643D01*
X11198214Y-10298214D02*
X11226786Y-10298214D01*
X11255357Y-10312500D01*
X11269643Y-10326786D01*
X11283928Y-10355357D01*
X11298214Y-10412500D01*
X11298214Y-10483929D01*
X11283928Y-10541072D01*
X11269643Y-10569643D01*
X11255357Y-10583929D01*
X11226786Y-10598214D01*
X11198214Y-10598214D01*
X11169643Y-10583929D01*
X11155357Y-10569643D01*
X11141071Y-10541072D01*
X11126786Y-10483929D01*
X11126786Y-10412500D01*
X11141071Y-10355357D01*
X11155357Y-10326786D01*
X11169643Y-10312500D01*
X11198214Y-10298214D01*
X11426786Y-10569643D02*
X11441071Y-10583929D01*
X11426786Y-10598214D01*
X11412500Y-10583929D01*
X11426786Y-10569643D01*
X11426786Y-10598214D01*
X11626786Y-10298214D02*
X11655357Y-10298214D01*
X11683928Y-10312500D01*
X11698214Y-10326786D01*
X11712500Y-10355357D01*
X11726786Y-10412500D01*
X11726786Y-10483929D01*
X11712500Y-10541072D01*
X11698214Y-10569643D01*
X11683928Y-10583929D01*
X11655357Y-10598214D01*
X11626786Y-10598214D01*
X11598214Y-10583929D01*
X11583928Y-10569643D01*
X11569643Y-10541072D01*
X11555357Y-10483929D01*
X11555357Y-10412500D01*
X11569643Y-10355357D01*
X11583928Y-10326786D01*
X11598214Y-10312500D01*
X11626786Y-10298214D01*
X12012500Y-10598214D02*
X11841071Y-10598214D01*
X11926786Y-10598214D02*
X11926786Y-10298214D01*
X11898214Y-10341072D01*
X11869643Y-10369643D01*
X11841071Y-10383929D01*
X12283928Y-10298214D02*
X12141071Y-10298214D01*
X12126786Y-10441072D01*
X12141071Y-10426786D01*
X12169643Y-10412500D01*
X12241071Y-10412500D01*
X12269643Y-10426786D01*
X12283928Y-10441072D01*
X12298214Y-10469643D01*
X12298214Y-10541072D01*
X12283928Y-10569643D01*
X12269643Y-10583929D01*
X12241071Y-10598214D01*
X12169643Y-10598214D01*
X12141071Y-10583929D01*
X12126786Y-10569643D01*
X12398214Y-10298214D02*
X12598214Y-10298214D01*
X12469643Y-10598214D01*
X12698214Y-10298214D02*
X12698214Y-10355357D01*
X12812500Y-10298214D02*
X12812500Y-10355357D01*
X13255357Y-10712500D02*
X13241071Y-10698214D01*
X13212500Y-10655357D01*
X13198214Y-10626786D01*
X13183928Y-10583929D01*
X13169643Y-10512500D01*
X13169643Y-10455357D01*
X13183928Y-10383929D01*
X13198214Y-10341072D01*
X13212500Y-10312500D01*
X13241071Y-10269643D01*
X13255357Y-10255357D01*
X13526786Y-10598214D02*
X13355357Y-10598214D01*
X13441071Y-10598214D02*
X13441071Y-10298214D01*
X13412500Y-10341072D01*
X13383928Y-10369643D01*
X13355357Y-10383929D01*
X13626786Y-10298214D02*
X13812500Y-10298214D01*
X13712500Y-10412500D01*
X13755357Y-10412500D01*
X13783928Y-10426786D01*
X13798214Y-10441072D01*
X13812500Y-10469643D01*
X13812500Y-10541072D01*
X13798214Y-10569643D01*
X13783928Y-10583929D01*
X13755357Y-10598214D01*
X13669643Y-10598214D01*
X13641071Y-10583929D01*
X13626786Y-10569643D01*
X13983928Y-10426786D02*
X13955357Y-10412500D01*
X13941071Y-10398214D01*
X13926786Y-10369643D01*
X13926786Y-10355357D01*
X13941071Y-10326786D01*
X13955357Y-10312500D01*
X13983928Y-10298214D01*
X14041071Y-10298214D01*
X14069643Y-10312500D01*
X14083928Y-10326786D01*
X14098214Y-10355357D01*
X14098214Y-10369643D01*
X14083928Y-10398214D01*
X14069643Y-10412500D01*
X14041071Y-10426786D01*
X13983928Y-10426786D01*
X13955357Y-10441072D01*
X13941071Y-10455357D01*
X13926786Y-10483929D01*
X13926786Y-10541072D01*
X13941071Y-10569643D01*
X13955357Y-10583929D01*
X13983928Y-10598214D01*
X14041071Y-10598214D01*
X14069643Y-10583929D01*
X14083928Y-10569643D01*
X14098214Y-10541072D01*
X14098214Y-10483929D01*
X14083928Y-10455357D01*
X14069643Y-10441072D01*
X14041071Y-10426786D01*
X14455357Y-10598214D02*
X14455357Y-10298214D01*
X14583928Y-10598214D02*
X14583928Y-10441072D01*
X14569643Y-10412500D01*
X14541071Y-10398214D01*
X14498214Y-10398214D01*
X14469643Y-10412500D01*
X14455357Y-10426786D01*
X14769643Y-10598214D02*
X14741071Y-10583929D01*
X14726786Y-10569643D01*
X14712500Y-10541072D01*
X14712500Y-10455357D01*
X14726786Y-10426786D01*
X14741071Y-10412500D01*
X14769643Y-10398214D01*
X14812500Y-10398214D01*
X14841071Y-10412500D01*
X14855357Y-10426786D01*
X14869643Y-10455357D01*
X14869643Y-10541072D01*
X14855357Y-10569643D01*
X14841071Y-10583929D01*
X14812500Y-10598214D01*
X14769643Y-10598214D01*
X15041071Y-10598214D02*
X15012500Y-10583929D01*
X14998214Y-10555357D01*
X14998214Y-10298214D01*
X15269643Y-10583929D02*
X15241071Y-10598214D01*
X15183928Y-10598214D01*
X15155357Y-10583929D01*
X15141071Y-10555357D01*
X15141071Y-10441072D01*
X15155357Y-10412500D01*
X15183928Y-10398214D01*
X15241071Y-10398214D01*
X15269643Y-10412500D01*
X15283928Y-10441072D01*
X15283928Y-10469643D01*
X15141071Y-10498214D01*
X15398214Y-10583929D02*
X15426786Y-10598214D01*
X15483928Y-10598214D01*
X15512500Y-10583929D01*
X15526786Y-10555357D01*
X15526786Y-10541072D01*
X15512500Y-10512500D01*
X15483928Y-10498214D01*
X15441071Y-10498214D01*
X15412500Y-10483929D01*
X15398214Y-10455357D01*
X15398214Y-10441072D01*
X15412500Y-10412500D01*
X15441071Y-10398214D01*
X15483928Y-10398214D01*
X15512500Y-10412500D01*
X15626786Y-10712500D02*
X15641071Y-10698214D01*
X15669643Y-10655357D01*
X15683928Y-10626786D01*
X15698214Y-10583929D01*
X15712500Y-10512500D01*
X15712500Y-10455357D01*
X15698214Y-10383929D01*
X15683928Y-10341072D01*
X15669643Y-10312500D01*
X15641071Y-10269643D01*
X15626786Y-10255357D01*
X7997500Y-10858500D02*
G75*
G03*
X7997500Y-10858500I-30000J0D01*
G01*
X8341071Y-10694214D02*
X8369643Y-10694214D01*
X8398214Y-10708500D01*
X8412500Y-10722786D01*
X8426786Y-10751357D01*
X8441071Y-10808500D01*
X8441071Y-10879929D01*
X8426786Y-10937072D01*
X8412500Y-10965643D01*
X8398214Y-10979929D01*
X8369643Y-10994214D01*
X8341071Y-10994214D01*
X8312500Y-10979929D01*
X8298214Y-10965643D01*
X8283928Y-10937072D01*
X8269643Y-10879929D01*
X8269643Y-10808500D01*
X8283928Y-10751357D01*
X8298214Y-10722786D01*
X8312500Y-10708500D01*
X8341071Y-10694214D01*
X8569643Y-10965643D02*
X8583928Y-10979929D01*
X8569643Y-10994214D01*
X8555357Y-10979929D01*
X8569643Y-10965643D01*
X8569643Y-10994214D01*
X8841071Y-10694214D02*
X8783928Y-10694214D01*
X8755357Y-10708500D01*
X8741071Y-10722786D01*
X8712500Y-10765643D01*
X8698214Y-10822786D01*
X8698214Y-10937072D01*
X8712500Y-10965643D01*
X8726786Y-10979929D01*
X8755357Y-10994214D01*
X8812500Y-10994214D01*
X8841071Y-10979929D01*
X8855357Y-10965643D01*
X8869643Y-10937072D01*
X8869643Y-10865643D01*
X8855357Y-10837072D01*
X8841071Y-10822786D01*
X8812500Y-10808500D01*
X8755357Y-10808500D01*
X8726786Y-10822786D01*
X8712500Y-10837072D01*
X8698214Y-10865643D01*
X9055357Y-10694214D02*
X9083928Y-10694214D01*
X9112500Y-10708500D01*
X9126786Y-10722786D01*
X9141071Y-10751357D01*
X9155357Y-10808500D01*
X9155357Y-10879929D01*
X9141071Y-10937072D01*
X9126786Y-10965643D01*
X9112500Y-10979929D01*
X9083928Y-10994214D01*
X9055357Y-10994214D01*
X9026786Y-10979929D01*
X9012500Y-10965643D01*
X8998214Y-10937072D01*
X8983928Y-10879929D01*
X8983928Y-10808500D01*
X8998214Y-10751357D01*
X9012500Y-10722786D01*
X9026786Y-10708500D01*
X9055357Y-10694214D01*
X9341071Y-10694214D02*
X9369643Y-10694214D01*
X9398214Y-10708500D01*
X9412500Y-10722786D01*
X9426786Y-10751357D01*
X9441071Y-10808500D01*
X9441071Y-10879929D01*
X9426786Y-10937072D01*
X9412500Y-10965643D01*
X9398214Y-10979929D01*
X9369643Y-10994214D01*
X9341071Y-10994214D01*
X9312500Y-10979929D01*
X9298214Y-10965643D01*
X9283928Y-10937072D01*
X9269643Y-10879929D01*
X9269643Y-10808500D01*
X9283928Y-10751357D01*
X9298214Y-10722786D01*
X9312500Y-10708500D01*
X9341071Y-10694214D01*
X9569643Y-10994214D02*
X9569643Y-10794214D01*
X9569643Y-10822786D02*
X9583928Y-10808500D01*
X9612500Y-10794214D01*
X9655357Y-10794214D01*
X9683928Y-10808500D01*
X9698214Y-10837072D01*
X9698214Y-10994214D01*
X9698214Y-10837072D02*
X9712500Y-10808500D01*
X9741071Y-10794214D01*
X9783928Y-10794214D01*
X9812500Y-10808500D01*
X9826786Y-10837072D01*
X9826786Y-10994214D01*
X9969643Y-10994214D02*
X9969643Y-10794214D01*
X9969643Y-10822786D02*
X9983928Y-10808500D01*
X10012500Y-10794214D01*
X10055357Y-10794214D01*
X10083928Y-10808500D01*
X10098214Y-10837072D01*
X10098214Y-10994214D01*
X10098214Y-10837072D02*
X10112500Y-10808500D01*
X10141071Y-10794214D01*
X10183928Y-10794214D01*
X10212500Y-10808500D01*
X10226786Y-10837072D01*
X10226786Y-10994214D01*
X10812500Y-10679929D02*
X10555357Y-11065643D01*
X11198214Y-10694214D02*
X11226786Y-10694214D01*
X11255357Y-10708500D01*
X11269643Y-10722786D01*
X11283928Y-10751357D01*
X11298214Y-10808500D01*
X11298214Y-10879929D01*
X11283928Y-10937072D01*
X11269643Y-10965643D01*
X11255357Y-10979929D01*
X11226786Y-10994214D01*
X11198214Y-10994214D01*
X11169643Y-10979929D01*
X11155357Y-10965643D01*
X11141071Y-10937072D01*
X11126786Y-10879929D01*
X11126786Y-10808500D01*
X11141071Y-10751357D01*
X11155357Y-10722786D01*
X11169643Y-10708500D01*
X11198214Y-10694214D01*
X11426786Y-10965643D02*
X11441071Y-10979929D01*
X11426786Y-10994214D01*
X11412500Y-10979929D01*
X11426786Y-10965643D01*
X11426786Y-10994214D01*
X11626786Y-10694214D02*
X11655357Y-10694214D01*
X11683928Y-10708500D01*
X11698214Y-10722786D01*
X11712500Y-10751357D01*
X11726786Y-10808500D01*
X11726786Y-10879929D01*
X11712500Y-10937072D01*
X11698214Y-10965643D01*
X11683928Y-10979929D01*
X11655357Y-10994214D01*
X11626786Y-10994214D01*
X11598214Y-10979929D01*
X11583928Y-10965643D01*
X11569643Y-10937072D01*
X11555357Y-10879929D01*
X11555357Y-10808500D01*
X11569643Y-10751357D01*
X11583928Y-10722786D01*
X11598214Y-10708500D01*
X11626786Y-10694214D01*
X11841071Y-10722786D02*
X11855357Y-10708500D01*
X11883928Y-10694214D01*
X11955357Y-10694214D01*
X11983928Y-10708500D01*
X11998214Y-10722786D01*
X12012500Y-10751357D01*
X12012500Y-10779929D01*
X11998214Y-10822786D01*
X11826786Y-10994214D01*
X12012500Y-10994214D01*
X12112500Y-10694214D02*
X12298214Y-10694214D01*
X12198214Y-10808500D01*
X12241071Y-10808500D01*
X12269643Y-10822786D01*
X12283928Y-10837072D01*
X12298214Y-10865643D01*
X12298214Y-10937072D01*
X12283928Y-10965643D01*
X12269643Y-10979929D01*
X12241071Y-10994214D01*
X12155357Y-10994214D01*
X12126786Y-10979929D01*
X12112500Y-10965643D01*
X12555357Y-10694214D02*
X12498214Y-10694214D01*
X12469643Y-10708500D01*
X12455357Y-10722786D01*
X12426786Y-10765643D01*
X12412500Y-10822786D01*
X12412500Y-10937072D01*
X12426786Y-10965643D01*
X12441071Y-10979929D01*
X12469643Y-10994214D01*
X12526786Y-10994214D01*
X12555357Y-10979929D01*
X12569643Y-10965643D01*
X12583928Y-10937072D01*
X12583928Y-10865643D01*
X12569643Y-10837072D01*
X12555357Y-10822786D01*
X12526786Y-10808500D01*
X12469643Y-10808500D01*
X12441071Y-10822786D01*
X12426786Y-10837072D01*
X12412500Y-10865643D01*
X12698214Y-10694214D02*
X12698214Y-10751357D01*
X12812500Y-10694214D02*
X12812500Y-10751357D01*
X13255357Y-11108500D02*
X13241071Y-11094214D01*
X13212500Y-11051357D01*
X13198214Y-11022786D01*
X13183928Y-10979929D01*
X13169643Y-10908500D01*
X13169643Y-10851357D01*
X13183928Y-10779929D01*
X13198214Y-10737072D01*
X13212500Y-10708500D01*
X13241071Y-10665643D01*
X13255357Y-10651357D01*
X13426786Y-10694214D02*
X13455357Y-10694214D01*
X13483928Y-10708500D01*
X13498214Y-10722786D01*
X13512500Y-10751357D01*
X13526786Y-10808500D01*
X13526786Y-10879929D01*
X13512500Y-10937072D01*
X13498214Y-10965643D01*
X13483928Y-10979929D01*
X13455357Y-10994214D01*
X13426786Y-10994214D01*
X13398214Y-10979929D01*
X13383928Y-10965643D01*
X13369643Y-10937072D01*
X13355357Y-10879929D01*
X13355357Y-10808500D01*
X13369643Y-10751357D01*
X13383928Y-10722786D01*
X13398214Y-10708500D01*
X13426786Y-10694214D01*
X13883928Y-10994214D02*
X13883928Y-10694214D01*
X14012500Y-10994214D02*
X14012500Y-10837072D01*
X13998214Y-10808500D01*
X13969643Y-10794214D01*
X13926786Y-10794214D01*
X13898214Y-10808500D01*
X13883928Y-10822786D01*
X14198214Y-10994214D02*
X14169643Y-10979929D01*
X14155357Y-10965643D01*
X14141071Y-10937072D01*
X14141071Y-10851357D01*
X14155357Y-10822786D01*
X14169643Y-10808500D01*
X14198214Y-10794214D01*
X14241071Y-10794214D01*
X14269643Y-10808500D01*
X14283928Y-10822786D01*
X14298214Y-10851357D01*
X14298214Y-10937072D01*
X14283928Y-10965643D01*
X14269643Y-10979929D01*
X14241071Y-10994214D01*
X14198214Y-10994214D01*
X14469643Y-10994214D02*
X14441071Y-10979929D01*
X14426786Y-10951357D01*
X14426786Y-10694214D01*
X14698214Y-10979929D02*
X14669643Y-10994214D01*
X14612500Y-10994214D01*
X14583928Y-10979929D01*
X14569643Y-10951357D01*
X14569643Y-10837072D01*
X14583928Y-10808500D01*
X14612500Y-10794214D01*
X14669643Y-10794214D01*
X14698214Y-10808500D01*
X14712500Y-10837072D01*
X14712500Y-10865643D01*
X14569643Y-10894214D01*
X14826786Y-10979929D02*
X14855357Y-10994214D01*
X14912500Y-10994214D01*
X14941071Y-10979929D01*
X14955357Y-10951357D01*
X14955357Y-10937072D01*
X14941071Y-10908500D01*
X14912500Y-10894214D01*
X14869643Y-10894214D01*
X14841071Y-10879929D01*
X14826786Y-10851357D01*
X14826786Y-10837072D01*
X14841071Y-10808500D01*
X14869643Y-10794214D01*
X14912500Y-10794214D01*
X14941071Y-10808500D01*
X15312500Y-10879929D02*
X15541071Y-10879929D01*
X15426786Y-10994214D02*
X15426786Y-10765643D01*
X15898214Y-10722786D02*
X15912500Y-10708500D01*
X15941071Y-10694214D01*
X16012500Y-10694214D01*
X16041071Y-10708500D01*
X16055357Y-10722786D01*
X16069643Y-10751357D01*
X16069643Y-10779929D01*
X16055357Y-10822786D01*
X15883928Y-10994214D01*
X16069643Y-10994214D01*
X16412500Y-10979929D02*
X16441071Y-10994214D01*
X16498214Y-10994214D01*
X16526786Y-10979929D01*
X16541071Y-10951357D01*
X16541071Y-10937072D01*
X16526786Y-10908500D01*
X16498214Y-10894214D01*
X16455357Y-10894214D01*
X16426786Y-10879929D01*
X16412500Y-10851357D01*
X16412500Y-10837072D01*
X16426786Y-10808500D01*
X16455357Y-10794214D01*
X16498214Y-10794214D01*
X16526786Y-10808500D01*
X16712500Y-10994214D02*
X16683928Y-10979929D01*
X16669643Y-10951357D01*
X16669643Y-10694214D01*
X16869643Y-10994214D02*
X16841071Y-10979929D01*
X16826786Y-10965643D01*
X16812500Y-10937072D01*
X16812500Y-10851357D01*
X16826786Y-10822786D01*
X16841071Y-10808500D01*
X16869643Y-10794214D01*
X16912500Y-10794214D01*
X16941071Y-10808500D01*
X16955357Y-10822786D01*
X16969643Y-10851357D01*
X16969643Y-10937072D01*
X16955357Y-10965643D01*
X16941071Y-10979929D01*
X16912500Y-10994214D01*
X16869643Y-10994214D01*
X17055357Y-10794214D02*
X17169643Y-10794214D01*
X17098214Y-10694214D02*
X17098214Y-10951357D01*
X17112500Y-10979929D01*
X17141071Y-10994214D01*
X17169643Y-10994214D01*
X17255357Y-10979929D02*
X17283928Y-10994214D01*
X17341071Y-10994214D01*
X17369643Y-10979929D01*
X17383928Y-10951357D01*
X17383928Y-10937072D01*
X17369643Y-10908500D01*
X17341071Y-10894214D01*
X17298214Y-10894214D01*
X17269643Y-10879929D01*
X17255357Y-10851357D01*
X17255357Y-10837072D01*
X17269643Y-10808500D01*
X17298214Y-10794214D01*
X17341071Y-10794214D01*
X17369643Y-10808500D01*
X17483928Y-11108500D02*
X17498214Y-11094214D01*
X17526786Y-11051357D01*
X17541071Y-11022786D01*
X17555357Y-10979929D01*
X17569643Y-10908500D01*
X17569643Y-10851357D01*
X17555357Y-10779929D01*
X17541071Y-10737072D01*
X17526786Y-10708500D01*
X17498214Y-10665643D01*
X17483928Y-10651357D01*
X7955000Y-11212000D02*
X7955000Y-11297000D01*
X7912500Y-11254500D02*
X7997500Y-11254500D01*
X8341071Y-11090214D02*
X8369643Y-11090214D01*
X8398214Y-11104500D01*
X8412500Y-11118786D01*
X8426786Y-11147357D01*
X8441071Y-11204500D01*
X8441071Y-11275929D01*
X8426786Y-11333071D01*
X8412500Y-11361643D01*
X8398214Y-11375929D01*
X8369643Y-11390214D01*
X8341071Y-11390214D01*
X8312500Y-11375929D01*
X8298214Y-11361643D01*
X8283928Y-11333071D01*
X8269643Y-11275929D01*
X8269643Y-11204500D01*
X8283928Y-11147357D01*
X8298214Y-11118786D01*
X8312500Y-11104500D01*
X8341071Y-11090214D01*
X8569643Y-11361643D02*
X8583928Y-11375929D01*
X8569643Y-11390214D01*
X8555357Y-11375929D01*
X8569643Y-11361643D01*
X8569643Y-11390214D01*
X8755357Y-11218786D02*
X8726786Y-11204500D01*
X8712500Y-11190214D01*
X8698214Y-11161643D01*
X8698214Y-11147357D01*
X8712500Y-11118786D01*
X8726786Y-11104500D01*
X8755357Y-11090214D01*
X8812500Y-11090214D01*
X8841071Y-11104500D01*
X8855357Y-11118786D01*
X8869643Y-11147357D01*
X8869643Y-11161643D01*
X8855357Y-11190214D01*
X8841071Y-11204500D01*
X8812500Y-11218786D01*
X8755357Y-11218786D01*
X8726786Y-11233071D01*
X8712500Y-11247357D01*
X8698214Y-11275929D01*
X8698214Y-11333071D01*
X8712500Y-11361643D01*
X8726786Y-11375929D01*
X8755357Y-11390214D01*
X8812500Y-11390214D01*
X8841071Y-11375929D01*
X8855357Y-11361643D01*
X8869643Y-11333071D01*
X8869643Y-11275929D01*
X8855357Y-11247357D01*
X8841071Y-11233071D01*
X8812500Y-11218786D01*
X9141071Y-11090214D02*
X8998214Y-11090214D01*
X8983928Y-11233071D01*
X8998214Y-11218786D01*
X9026786Y-11204500D01*
X9098214Y-11204500D01*
X9126786Y-11218786D01*
X9141071Y-11233071D01*
X9155357Y-11261643D01*
X9155357Y-11333071D01*
X9141071Y-11361643D01*
X9126786Y-11375929D01*
X9098214Y-11390214D01*
X9026786Y-11390214D01*
X8998214Y-11375929D01*
X8983928Y-11361643D01*
X9341071Y-11090214D02*
X9369643Y-11090214D01*
X9398214Y-11104500D01*
X9412500Y-11118786D01*
X9426786Y-11147357D01*
X9441071Y-11204500D01*
X9441071Y-11275929D01*
X9426786Y-11333071D01*
X9412500Y-11361643D01*
X9398214Y-11375929D01*
X9369643Y-11390214D01*
X9341071Y-11390214D01*
X9312500Y-11375929D01*
X9298214Y-11361643D01*
X9283928Y-11333071D01*
X9269643Y-11275929D01*
X9269643Y-11204500D01*
X9283928Y-11147357D01*
X9298214Y-11118786D01*
X9312500Y-11104500D01*
X9341071Y-11090214D01*
X9569643Y-11390214D02*
X9569643Y-11190214D01*
X9569643Y-11218786D02*
X9583928Y-11204500D01*
X9612500Y-11190214D01*
X9655357Y-11190214D01*
X9683928Y-11204500D01*
X9698214Y-11233071D01*
X9698214Y-11390214D01*
X9698214Y-11233071D02*
X9712500Y-11204500D01*
X9741071Y-11190214D01*
X9783928Y-11190214D01*
X9812500Y-11204500D01*
X9826786Y-11233071D01*
X9826786Y-11390214D01*
X9969643Y-11390214D02*
X9969643Y-11190214D01*
X9969643Y-11218786D02*
X9983928Y-11204500D01*
X10012500Y-11190214D01*
X10055357Y-11190214D01*
X10083928Y-11204500D01*
X10098214Y-11233071D01*
X10098214Y-11390214D01*
X10098214Y-11233071D02*
X10112500Y-11204500D01*
X10141071Y-11190214D01*
X10183928Y-11190214D01*
X10212500Y-11204500D01*
X10226786Y-11233071D01*
X10226786Y-11390214D01*
X10812500Y-11075929D02*
X10555357Y-11461643D01*
X11198214Y-11090214D02*
X11226786Y-11090214D01*
X11255357Y-11104500D01*
X11269643Y-11118786D01*
X11283928Y-11147357D01*
X11298214Y-11204500D01*
X11298214Y-11275929D01*
X11283928Y-11333071D01*
X11269643Y-11361643D01*
X11255357Y-11375929D01*
X11226786Y-11390214D01*
X11198214Y-11390214D01*
X11169643Y-11375929D01*
X11155357Y-11361643D01*
X11141071Y-11333071D01*
X11126786Y-11275929D01*
X11126786Y-11204500D01*
X11141071Y-11147357D01*
X11155357Y-11118786D01*
X11169643Y-11104500D01*
X11198214Y-11090214D01*
X11426786Y-11361643D02*
X11441071Y-11375929D01*
X11426786Y-11390214D01*
X11412500Y-11375929D01*
X11426786Y-11361643D01*
X11426786Y-11390214D01*
X11626786Y-11090214D02*
X11655357Y-11090214D01*
X11683928Y-11104500D01*
X11698214Y-11118786D01*
X11712500Y-11147357D01*
X11726786Y-11204500D01*
X11726786Y-11275929D01*
X11712500Y-11333071D01*
X11698214Y-11361643D01*
X11683928Y-11375929D01*
X11655357Y-11390214D01*
X11626786Y-11390214D01*
X11598214Y-11375929D01*
X11583928Y-11361643D01*
X11569643Y-11333071D01*
X11555357Y-11275929D01*
X11555357Y-11204500D01*
X11569643Y-11147357D01*
X11583928Y-11118786D01*
X11598214Y-11104500D01*
X11626786Y-11090214D01*
X11826786Y-11090214D02*
X12012500Y-11090214D01*
X11912500Y-11204500D01*
X11955357Y-11204500D01*
X11983928Y-11218786D01*
X11998214Y-11233071D01*
X12012500Y-11261643D01*
X12012500Y-11333071D01*
X11998214Y-11361643D01*
X11983928Y-11375929D01*
X11955357Y-11390214D01*
X11869643Y-11390214D01*
X11841071Y-11375929D01*
X11826786Y-11361643D01*
X12112500Y-11090214D02*
X12298214Y-11090214D01*
X12198214Y-11204500D01*
X12241071Y-11204500D01*
X12269643Y-11218786D01*
X12283928Y-11233071D01*
X12298214Y-11261643D01*
X12298214Y-11333071D01*
X12283928Y-11361643D01*
X12269643Y-11375929D01*
X12241071Y-11390214D01*
X12155357Y-11390214D01*
X12126786Y-11375929D01*
X12112500Y-11361643D01*
X12569643Y-11090214D02*
X12426786Y-11090214D01*
X12412500Y-11233071D01*
X12426786Y-11218786D01*
X12455357Y-11204500D01*
X12526786Y-11204500D01*
X12555357Y-11218786D01*
X12569643Y-11233071D01*
X12583928Y-11261643D01*
X12583928Y-11333071D01*
X12569643Y-11361643D01*
X12555357Y-11375929D01*
X12526786Y-11390214D01*
X12455357Y-11390214D01*
X12426786Y-11375929D01*
X12412500Y-11361643D01*
X12698214Y-11090214D02*
X12698214Y-11147357D01*
X12812500Y-11090214D02*
X12812500Y-11147357D01*
X13255357Y-11504500D02*
X13241071Y-11490214D01*
X13212500Y-11447357D01*
X13198214Y-11418786D01*
X13183928Y-11375929D01*
X13169643Y-11304500D01*
X13169643Y-11247357D01*
X13183928Y-11175929D01*
X13198214Y-11133072D01*
X13212500Y-11104500D01*
X13241071Y-11061643D01*
X13255357Y-11047357D01*
X13355357Y-11118786D02*
X13369643Y-11104500D01*
X13398214Y-11090214D01*
X13469643Y-11090214D01*
X13498214Y-11104500D01*
X13512500Y-11118786D01*
X13526786Y-11147357D01*
X13526786Y-11175929D01*
X13512500Y-11218786D01*
X13341071Y-11390214D01*
X13526786Y-11390214D01*
X13883928Y-11390214D02*
X13883928Y-11090214D01*
X14012500Y-11390214D02*
X14012500Y-11233071D01*
X13998214Y-11204500D01*
X13969643Y-11190214D01*
X13926786Y-11190214D01*
X13898214Y-11204500D01*
X13883928Y-11218786D01*
X14198214Y-11390214D02*
X14169643Y-11375929D01*
X14155357Y-11361643D01*
X14141071Y-11333071D01*
X14141071Y-11247357D01*
X14155357Y-11218786D01*
X14169643Y-11204500D01*
X14198214Y-11190214D01*
X14241071Y-11190214D01*
X14269643Y-11204500D01*
X14283928Y-11218786D01*
X14298214Y-11247357D01*
X14298214Y-11333071D01*
X14283928Y-11361643D01*
X14269643Y-11375929D01*
X14241071Y-11390214D01*
X14198214Y-11390214D01*
X14469643Y-11390214D02*
X14441071Y-11375929D01*
X14426786Y-11347357D01*
X14426786Y-11090214D01*
X14698214Y-11375929D02*
X14669643Y-11390214D01*
X14612500Y-11390214D01*
X14583928Y-11375929D01*
X14569643Y-11347357D01*
X14569643Y-11233071D01*
X14583928Y-11204500D01*
X14612500Y-11190214D01*
X14669643Y-11190214D01*
X14698214Y-11204500D01*
X14712500Y-11233071D01*
X14712500Y-11261643D01*
X14569643Y-11290214D01*
X14826786Y-11375929D02*
X14855357Y-11390214D01*
X14912500Y-11390214D01*
X14941071Y-11375929D01*
X14955357Y-11347357D01*
X14955357Y-11333071D01*
X14941071Y-11304500D01*
X14912500Y-11290214D01*
X14869643Y-11290214D01*
X14841071Y-11275929D01*
X14826786Y-11247357D01*
X14826786Y-11233071D01*
X14841071Y-11204500D01*
X14869643Y-11190214D01*
X14912500Y-11190214D01*
X14941071Y-11204500D01*
X15055357Y-11504500D02*
X15069643Y-11490214D01*
X15098214Y-11447357D01*
X15112500Y-11418786D01*
X15126786Y-11375929D01*
X15141071Y-11304500D01*
X15141071Y-11247357D01*
X15126786Y-11175929D01*
X15112500Y-11133072D01*
X15098214Y-11104500D01*
X15069643Y-11061643D01*
X15055357Y-11047357D01*
X7982856Y-11685856D02*
X7982856Y-11615144D01*
X7912144Y-11615144D01*
X7912144Y-11685856D01*
X7982856Y-11685856D01*
X8441071Y-11786214D02*
X8269643Y-11786214D01*
X8355357Y-11786214D02*
X8355357Y-11486214D01*
X8326786Y-11529071D01*
X8298214Y-11557643D01*
X8269643Y-11571929D01*
X8569643Y-11757643D02*
X8583928Y-11771929D01*
X8569643Y-11786214D01*
X8555357Y-11771929D01*
X8569643Y-11757643D01*
X8569643Y-11786214D01*
X8769643Y-11486214D02*
X8798214Y-11486214D01*
X8826786Y-11500500D01*
X8841071Y-11514786D01*
X8855357Y-11543357D01*
X8869643Y-11600500D01*
X8869643Y-11671929D01*
X8855357Y-11729071D01*
X8841071Y-11757643D01*
X8826786Y-11771929D01*
X8798214Y-11786214D01*
X8769643Y-11786214D01*
X8741071Y-11771929D01*
X8726786Y-11757643D01*
X8712500Y-11729071D01*
X8698214Y-11671929D01*
X8698214Y-11600500D01*
X8712500Y-11543357D01*
X8726786Y-11514786D01*
X8741071Y-11500500D01*
X8769643Y-11486214D01*
X9055357Y-11486214D02*
X9083928Y-11486214D01*
X9112500Y-11500500D01*
X9126786Y-11514786D01*
X9141071Y-11543357D01*
X9155357Y-11600500D01*
X9155357Y-11671929D01*
X9141071Y-11729071D01*
X9126786Y-11757643D01*
X9112500Y-11771929D01*
X9083928Y-11786214D01*
X9055357Y-11786214D01*
X9026786Y-11771929D01*
X9012500Y-11757643D01*
X8998214Y-11729071D01*
X8983928Y-11671929D01*
X8983928Y-11600500D01*
X8998214Y-11543357D01*
X9012500Y-11514786D01*
X9026786Y-11500500D01*
X9055357Y-11486214D01*
X9341071Y-11486214D02*
X9369643Y-11486214D01*
X9398214Y-11500500D01*
X9412500Y-11514786D01*
X9426786Y-11543357D01*
X9441071Y-11600500D01*
X9441071Y-11671929D01*
X9426786Y-11729071D01*
X9412500Y-11757643D01*
X9398214Y-11771929D01*
X9369643Y-11786214D01*
X9341071Y-11786214D01*
X9312500Y-11771929D01*
X9298214Y-11757643D01*
X9283928Y-11729071D01*
X9269643Y-11671929D01*
X9269643Y-11600500D01*
X9283928Y-11543357D01*
X9298214Y-11514786D01*
X9312500Y-11500500D01*
X9341071Y-11486214D01*
X9569643Y-11786214D02*
X9569643Y-11586214D01*
X9569643Y-11614786D02*
X9583928Y-11600500D01*
X9612500Y-11586214D01*
X9655357Y-11586214D01*
X9683928Y-11600500D01*
X9698214Y-11629071D01*
X9698214Y-11786214D01*
X9698214Y-11629071D02*
X9712500Y-11600500D01*
X9741071Y-11586214D01*
X9783928Y-11586214D01*
X9812500Y-11600500D01*
X9826786Y-11629071D01*
X9826786Y-11786214D01*
X9969643Y-11786214D02*
X9969643Y-11586214D01*
X9969643Y-11614786D02*
X9983928Y-11600500D01*
X10012500Y-11586214D01*
X10055357Y-11586214D01*
X10083928Y-11600500D01*
X10098214Y-11629071D01*
X10098214Y-11786214D01*
X10098214Y-11629071D02*
X10112500Y-11600500D01*
X10141071Y-11586214D01*
X10183928Y-11586214D01*
X10212500Y-11600500D01*
X10226786Y-11629071D01*
X10226786Y-11786214D01*
X10812500Y-11471929D02*
X10555357Y-11857643D01*
X11198214Y-11486214D02*
X11226786Y-11486214D01*
X11255357Y-11500500D01*
X11269643Y-11514786D01*
X11283928Y-11543357D01*
X11298214Y-11600500D01*
X11298214Y-11671929D01*
X11283928Y-11729071D01*
X11269643Y-11757643D01*
X11255357Y-11771929D01*
X11226786Y-11786214D01*
X11198214Y-11786214D01*
X11169643Y-11771929D01*
X11155357Y-11757643D01*
X11141071Y-11729071D01*
X11126786Y-11671929D01*
X11126786Y-11600500D01*
X11141071Y-11543357D01*
X11155357Y-11514786D01*
X11169643Y-11500500D01*
X11198214Y-11486214D01*
X11426786Y-11757643D02*
X11441071Y-11771929D01*
X11426786Y-11786214D01*
X11412500Y-11771929D01*
X11426786Y-11757643D01*
X11426786Y-11786214D01*
X11626786Y-11486214D02*
X11655357Y-11486214D01*
X11683928Y-11500500D01*
X11698214Y-11514786D01*
X11712500Y-11543357D01*
X11726786Y-11600500D01*
X11726786Y-11671929D01*
X11712500Y-11729071D01*
X11698214Y-11757643D01*
X11683928Y-11771929D01*
X11655357Y-11786214D01*
X11626786Y-11786214D01*
X11598214Y-11771929D01*
X11583928Y-11757643D01*
X11569643Y-11729071D01*
X11555357Y-11671929D01*
X11555357Y-11600500D01*
X11569643Y-11543357D01*
X11583928Y-11514786D01*
X11598214Y-11500500D01*
X11626786Y-11486214D01*
X11826786Y-11486214D02*
X12012500Y-11486214D01*
X11912500Y-11600500D01*
X11955357Y-11600500D01*
X11983928Y-11614786D01*
X11998214Y-11629071D01*
X12012500Y-11657643D01*
X12012500Y-11729071D01*
X11998214Y-11757643D01*
X11983928Y-11771929D01*
X11955357Y-11786214D01*
X11869643Y-11786214D01*
X11841071Y-11771929D01*
X11826786Y-11757643D01*
X12155357Y-11786214D02*
X12212500Y-11786214D01*
X12241071Y-11771929D01*
X12255357Y-11757643D01*
X12283928Y-11714786D01*
X12298214Y-11657643D01*
X12298214Y-11543357D01*
X12283928Y-11514786D01*
X12269643Y-11500500D01*
X12241071Y-11486214D01*
X12183928Y-11486214D01*
X12155357Y-11500500D01*
X12141071Y-11514786D01*
X12126786Y-11543357D01*
X12126786Y-11614786D01*
X12141071Y-11643357D01*
X12155357Y-11657643D01*
X12183928Y-11671929D01*
X12241071Y-11671929D01*
X12269643Y-11657643D01*
X12283928Y-11643357D01*
X12298214Y-11614786D01*
X12555357Y-11586214D02*
X12555357Y-11786214D01*
X12483928Y-11471929D02*
X12412500Y-11686214D01*
X12598214Y-11686214D01*
X12698214Y-11486214D02*
X12698214Y-11543357D01*
X12812500Y-11486214D02*
X12812500Y-11543357D01*
X13255357Y-11900500D02*
X13241071Y-11886214D01*
X13212500Y-11843357D01*
X13198214Y-11814786D01*
X13183928Y-11771929D01*
X13169643Y-11700500D01*
X13169643Y-11643357D01*
X13183928Y-11571929D01*
X13198214Y-11529071D01*
X13212500Y-11500500D01*
X13241071Y-11457643D01*
X13255357Y-11443357D01*
X13526786Y-11786214D02*
X13355357Y-11786214D01*
X13441071Y-11786214D02*
X13441071Y-11486214D01*
X13412500Y-11529071D01*
X13383928Y-11557643D01*
X13355357Y-11571929D01*
X13641071Y-11514786D02*
X13655357Y-11500500D01*
X13683928Y-11486214D01*
X13755357Y-11486214D01*
X13783928Y-11500500D01*
X13798214Y-11514786D01*
X13812500Y-11543357D01*
X13812500Y-11571929D01*
X13798214Y-11614786D01*
X13626786Y-11786214D01*
X13812500Y-11786214D01*
X14169643Y-11786214D02*
X14169643Y-11486214D01*
X14298214Y-11786214D02*
X14298214Y-11629071D01*
X14283928Y-11600500D01*
X14255357Y-11586214D01*
X14212500Y-11586214D01*
X14183928Y-11600500D01*
X14169643Y-11614786D01*
X14483928Y-11786214D02*
X14455357Y-11771929D01*
X14441071Y-11757643D01*
X14426786Y-11729071D01*
X14426786Y-11643357D01*
X14441071Y-11614786D01*
X14455357Y-11600500D01*
X14483928Y-11586214D01*
X14526786Y-11586214D01*
X14555357Y-11600500D01*
X14569643Y-11614786D01*
X14583928Y-11643357D01*
X14583928Y-11729071D01*
X14569643Y-11757643D01*
X14555357Y-11771929D01*
X14526786Y-11786214D01*
X14483928Y-11786214D01*
X14755357Y-11786214D02*
X14726786Y-11771929D01*
X14712500Y-11743357D01*
X14712500Y-11486214D01*
X14983928Y-11771929D02*
X14955357Y-11786214D01*
X14898214Y-11786214D01*
X14869643Y-11771929D01*
X14855357Y-11743357D01*
X14855357Y-11629071D01*
X14869643Y-11600500D01*
X14898214Y-11586214D01*
X14955357Y-11586214D01*
X14983928Y-11600500D01*
X14998214Y-11629071D01*
X14998214Y-11657643D01*
X14855357Y-11686214D01*
X15112500Y-11771929D02*
X15141071Y-11786214D01*
X15198214Y-11786214D01*
X15226786Y-11771929D01*
X15241071Y-11743357D01*
X15241071Y-11729071D01*
X15226786Y-11700500D01*
X15198214Y-11686214D01*
X15155357Y-11686214D01*
X15126786Y-11671929D01*
X15112500Y-11643357D01*
X15112500Y-11629071D01*
X15126786Y-11600500D01*
X15155357Y-11586214D01*
X15198214Y-11586214D01*
X15226786Y-11600500D01*
X15341071Y-11900500D02*
X15355357Y-11886214D01*
X15383928Y-11843357D01*
X15398214Y-11814786D01*
X15412500Y-11771929D01*
X15426786Y-11700500D01*
X15426786Y-11643357D01*
X15412500Y-11571929D01*
X15398214Y-11529071D01*
X15383928Y-11500500D01*
X15355357Y-11457643D01*
X15341071Y-11443357D01*
M02*
