G04 #@! TF.GenerationSoftware,KiCad,Pcbnew,5.1.10-88a1d61d58~90~ubuntu20.04.1*
G04 #@! TF.CreationDate,2021-11-08T15:05:55+08:00*
G04 #@! TF.ProjectId,esp32-c3-test,65737033-322d-4633-932d-746573742e6b,rev?*
G04 #@! TF.SameCoordinates,Original*
G04 #@! TF.FileFunction,Copper,L2,Bot*
G04 #@! TF.FilePolarity,Positive*
%FSLAX46Y46*%
G04 Gerber Fmt 4.6, Leading zero omitted, Abs format (unit mm)*
G04 Created by KiCad (PCBNEW 5.1.10-88a1d61d58~90~ubuntu20.04.1) date 2021-11-08 15:05:55*
%MOMM*%
%LPD*%
G01*
G04 APERTURE LIST*
G04 #@! TA.AperFunction,ComponentPad*
%ADD10O,1.700000X1.700000*%
G04 #@! TD*
G04 #@! TA.AperFunction,ComponentPad*
%ADD11O,1.200000X1.900000*%
G04 #@! TD*
G04 #@! TA.AperFunction,ComponentPad*
%ADD12C,1.450000*%
G04 #@! TD*
G04 #@! TA.AperFunction,ViaPad*
%ADD13C,0.600000*%
G04 #@! TD*
G04 #@! TA.AperFunction,Conductor*
%ADD14C,0.254000*%
G04 #@! TD*
G04 #@! TA.AperFunction,Conductor*
%ADD15C,0.100000*%
G04 #@! TD*
G04 APERTURE END LIST*
D10*
X117000000Y-91500000D03*
X117000000Y-88960000D03*
X89500000Y-69000000D03*
X86960000Y-69000000D03*
X89500000Y-91500000D03*
X86960000Y-91500000D03*
X97500000Y-85500000D03*
X117000000Y-81270000D03*
X117000000Y-78730000D03*
X117000000Y-58460000D03*
X117000000Y-61000000D03*
X117000000Y-63540000D03*
D11*
X103500000Y-93237500D03*
X96500000Y-93237500D03*
D12*
X102500000Y-90537500D03*
X97500000Y-90537500D03*
D13*
X96000000Y-57500000D03*
X100000000Y-57500000D03*
X104000000Y-57500000D03*
X102000000Y-57500000D03*
X98000000Y-57500000D03*
X104000000Y-59000000D03*
X104000000Y-61000000D03*
X104000000Y-63000000D03*
X96000000Y-59000000D03*
X96000000Y-61000000D03*
X96000000Y-63000000D03*
X104000000Y-64500000D03*
X102000000Y-64500000D03*
X100000000Y-64500000D03*
X98000000Y-64500000D03*
X96000000Y-64500000D03*
X112000000Y-76500000D03*
X94000000Y-67000000D03*
X106000000Y-67000000D03*
X107000000Y-56000000D03*
X93000000Y-56000000D03*
X93000000Y-57000000D03*
X108500000Y-76500000D03*
X104500000Y-76500000D03*
X101000000Y-76500000D03*
X97500000Y-76500000D03*
X107000000Y-66000000D03*
X95500000Y-76500000D03*
X93000000Y-66000000D03*
X93000000Y-65000000D03*
X96800000Y-67000000D03*
X86500000Y-87500000D03*
X86500000Y-86500000D03*
X86500000Y-88500000D03*
X86500000Y-74500000D03*
X86500000Y-73500000D03*
X86500000Y-75500000D03*
X86500000Y-58500000D03*
X86500000Y-57500000D03*
X86500000Y-59500000D03*
X85500000Y-84500000D03*
X85500000Y-83500000D03*
X85500000Y-85500000D03*
X86500000Y-82500000D03*
X85500000Y-82500000D03*
X101300000Y-89300000D03*
X101300000Y-91700000D03*
X119000000Y-56000000D03*
X115000000Y-56000000D03*
X117000000Y-56000000D03*
X113000000Y-56000000D03*
X119000000Y-58000000D03*
X119000000Y-94000000D03*
X119000000Y-92000000D03*
X117000000Y-94000000D03*
X111000000Y-56000000D03*
X109000000Y-56000000D03*
X91500000Y-56000000D03*
X90000000Y-56000000D03*
X88500000Y-56000000D03*
X87000000Y-56000000D03*
X85500000Y-56000000D03*
X84000000Y-56000000D03*
X82500000Y-56000000D03*
X81000000Y-56000000D03*
X93000000Y-57800000D03*
X86500000Y-72500000D03*
X87500000Y-72500000D03*
X88500000Y-72500000D03*
X86500000Y-76500000D03*
X86500000Y-60500000D03*
X87500000Y-60500000D03*
X88500000Y-60500000D03*
X81000000Y-58000000D03*
X81000000Y-60000000D03*
X81000000Y-62000000D03*
X81000000Y-64000000D03*
X81000000Y-66000000D03*
X81000000Y-68000000D03*
X81000000Y-70000000D03*
X81000000Y-72000000D03*
X81000000Y-74000000D03*
X81000000Y-76000000D03*
X81000000Y-78000000D03*
X81000000Y-80000000D03*
X81000000Y-82000000D03*
X81000000Y-84000000D03*
X81000000Y-86000000D03*
X81000000Y-88000000D03*
X81000000Y-90000000D03*
X81000000Y-92000000D03*
X119000000Y-60000000D03*
X119000000Y-62000000D03*
X119000000Y-64000000D03*
X119000000Y-66000000D03*
X119000000Y-68000000D03*
X119000000Y-70000000D03*
X119000000Y-72000000D03*
X119000000Y-74000000D03*
X119000000Y-76000000D03*
X119000000Y-78000000D03*
X119000000Y-80000000D03*
X119000000Y-82000000D03*
X119000000Y-84000000D03*
X119000000Y-86000000D03*
X119000000Y-88000000D03*
X119000000Y-90000000D03*
X115000000Y-94000000D03*
X113000000Y-94000000D03*
X111000000Y-94000000D03*
X109000000Y-94000000D03*
X107000000Y-94000000D03*
X83000000Y-94000000D03*
X85000000Y-94000000D03*
X87000000Y-94000000D03*
X89000000Y-94000000D03*
X91000000Y-94000000D03*
X93000000Y-94000000D03*
X84000000Y-61000000D03*
X85000000Y-64000000D03*
X108000000Y-59500000D03*
X112500000Y-59000000D03*
X109500000Y-58000000D03*
X108000000Y-62000000D03*
X112500000Y-62000000D03*
X102000000Y-68000000D03*
X101500000Y-71500000D03*
X102000000Y-69500000D03*
X99500000Y-72500000D03*
X93000000Y-70000000D03*
X94500000Y-72500000D03*
X99000000Y-79000000D03*
X112000000Y-82500000D03*
X112000000Y-87000000D03*
X107500000Y-71500000D03*
X111500000Y-69000000D03*
X81000000Y-94000000D03*
X98700000Y-89300000D03*
D14*
X119373000Y-94373000D02*
X104100627Y-94373000D01*
X104103869Y-94370974D01*
X104245114Y-94238111D01*
X104357725Y-94080245D01*
X104437374Y-93903443D01*
X104481000Y-93714500D01*
X104481000Y-93364500D01*
X103627000Y-93364500D01*
X103627000Y-93384500D01*
X103373000Y-93384500D01*
X103373000Y-93364500D01*
X102519000Y-93364500D01*
X102519000Y-93714500D01*
X102562626Y-93903443D01*
X102642275Y-94080245D01*
X102754886Y-94238111D01*
X102896131Y-94370974D01*
X102899373Y-94373000D01*
X97100627Y-94373000D01*
X97103869Y-94370974D01*
X97245114Y-94238111D01*
X97357725Y-94080245D01*
X97437374Y-93903443D01*
X97481000Y-93714500D01*
X97481000Y-93364500D01*
X96627000Y-93364500D01*
X96627000Y-93384500D01*
X96373000Y-93384500D01*
X96373000Y-93364500D01*
X95519000Y-93364500D01*
X95519000Y-93714500D01*
X95562626Y-93903443D01*
X95642275Y-94080245D01*
X95754886Y-94238111D01*
X95896131Y-94370974D01*
X95899373Y-94373000D01*
X80627000Y-94373000D01*
X80627000Y-92760500D01*
X95519000Y-92760500D01*
X95519000Y-93110500D01*
X96373000Y-93110500D01*
X96373000Y-92010902D01*
X96627000Y-92010902D01*
X96627000Y-93110500D01*
X97481000Y-93110500D01*
X97481000Y-92760500D01*
X102519000Y-92760500D01*
X102519000Y-93110500D01*
X103373000Y-93110500D01*
X103373000Y-92010902D01*
X103627000Y-92010902D01*
X103627000Y-93110500D01*
X104481000Y-93110500D01*
X104481000Y-92760500D01*
X104437374Y-92571557D01*
X104357725Y-92394755D01*
X104245114Y-92236889D01*
X104103869Y-92104026D01*
X103939418Y-92001271D01*
X103777607Y-91946598D01*
X103627000Y-92010902D01*
X103373000Y-92010902D01*
X103222393Y-91946598D01*
X103060582Y-92001271D01*
X102896131Y-92104026D01*
X102754886Y-92236889D01*
X102642275Y-92394755D01*
X102562626Y-92571557D01*
X102519000Y-92760500D01*
X97481000Y-92760500D01*
X97437374Y-92571557D01*
X97357725Y-92394755D01*
X97245114Y-92236889D01*
X97103869Y-92104026D01*
X96939418Y-92001271D01*
X96777607Y-91946598D01*
X96627000Y-92010902D01*
X96373000Y-92010902D01*
X96222393Y-91946598D01*
X96060582Y-92001271D01*
X95896131Y-92104026D01*
X95754886Y-92236889D01*
X95642275Y-92394755D01*
X95562626Y-92571557D01*
X95519000Y-92760500D01*
X80627000Y-92760500D01*
X80627000Y-91816981D01*
X85770505Y-91816981D01*
X85855201Y-92042949D01*
X85982353Y-92248052D01*
X86147076Y-92424408D01*
X86343039Y-92565239D01*
X86562712Y-92665134D01*
X86643020Y-92689489D01*
X86833000Y-92628627D01*
X86833000Y-91627000D01*
X87087000Y-91627000D01*
X87087000Y-92628627D01*
X87276980Y-92689489D01*
X87357288Y-92665134D01*
X87576961Y-92565239D01*
X87772924Y-92424408D01*
X87937647Y-92248052D01*
X88064799Y-92042949D01*
X88149495Y-91816981D01*
X88089187Y-91627000D01*
X87087000Y-91627000D01*
X86833000Y-91627000D01*
X85830813Y-91627000D01*
X85770505Y-91816981D01*
X80627000Y-91816981D01*
X80627000Y-91378757D01*
X88269000Y-91378757D01*
X88269000Y-91621243D01*
X88316307Y-91859069D01*
X88409102Y-92083097D01*
X88543820Y-92284717D01*
X88715283Y-92456180D01*
X88916903Y-92590898D01*
X89140931Y-92683693D01*
X89378757Y-92731000D01*
X89621243Y-92731000D01*
X89859069Y-92683693D01*
X90083097Y-92590898D01*
X90284717Y-92456180D01*
X90456180Y-92284717D01*
X90590898Y-92083097D01*
X90683693Y-91859069D01*
X90692065Y-91816980D01*
X115810511Y-91816980D01*
X115834866Y-91897288D01*
X115934761Y-92116961D01*
X116075592Y-92312924D01*
X116251948Y-92477647D01*
X116457051Y-92604799D01*
X116683019Y-92689495D01*
X116873000Y-92629187D01*
X116873000Y-91627000D01*
X117127000Y-91627000D01*
X117127000Y-92629187D01*
X117316981Y-92689495D01*
X117542949Y-92604799D01*
X117748052Y-92477647D01*
X117924408Y-92312924D01*
X118065239Y-92116961D01*
X118165134Y-91897288D01*
X118189489Y-91816980D01*
X118128627Y-91627000D01*
X117127000Y-91627000D01*
X116873000Y-91627000D01*
X115871373Y-91627000D01*
X115810511Y-91816980D01*
X90692065Y-91816980D01*
X90731000Y-91621243D01*
X90731000Y-91378757D01*
X90723323Y-91340160D01*
X96876945Y-91340160D01*
X96953788Y-91505361D01*
X97153104Y-91593324D01*
X97365751Y-91640713D01*
X97583557Y-91645705D01*
X97798152Y-91608111D01*
X98001289Y-91529372D01*
X98046212Y-91505361D01*
X98123055Y-91340160D01*
X101876945Y-91340160D01*
X101953788Y-91505361D01*
X102153104Y-91593324D01*
X102365751Y-91640713D01*
X102583557Y-91645705D01*
X102798152Y-91608111D01*
X103001289Y-91529372D01*
X103046212Y-91505361D01*
X103123055Y-91340160D01*
X102965915Y-91183020D01*
X115810511Y-91183020D01*
X115871373Y-91373000D01*
X116873000Y-91373000D01*
X116873000Y-90370813D01*
X117127000Y-90370813D01*
X117127000Y-91373000D01*
X118128627Y-91373000D01*
X118189489Y-91183020D01*
X118165134Y-91102712D01*
X118065239Y-90883039D01*
X117924408Y-90687076D01*
X117748052Y-90522353D01*
X117542949Y-90395201D01*
X117316981Y-90310505D01*
X117127000Y-90370813D01*
X116873000Y-90370813D01*
X116683019Y-90310505D01*
X116457051Y-90395201D01*
X116251948Y-90522353D01*
X116075592Y-90687076D01*
X115934761Y-90883039D01*
X115834866Y-91102712D01*
X115810511Y-91183020D01*
X102965915Y-91183020D01*
X102500000Y-90717105D01*
X101876945Y-91340160D01*
X98123055Y-91340160D01*
X97500000Y-90717105D01*
X96876945Y-91340160D01*
X90723323Y-91340160D01*
X90683693Y-91140931D01*
X90590898Y-90916903D01*
X90456180Y-90715283D01*
X90361954Y-90621057D01*
X96391795Y-90621057D01*
X96429389Y-90835652D01*
X96508128Y-91038789D01*
X96532139Y-91083712D01*
X96697340Y-91160555D01*
X97320395Y-90537500D01*
X96697340Y-89914445D01*
X96532139Y-89991288D01*
X96444176Y-90190604D01*
X96396787Y-90403251D01*
X96391795Y-90621057D01*
X90361954Y-90621057D01*
X90284717Y-90543820D01*
X90083097Y-90409102D01*
X89859069Y-90316307D01*
X89621243Y-90269000D01*
X89378757Y-90269000D01*
X89140931Y-90316307D01*
X88916903Y-90409102D01*
X88715283Y-90543820D01*
X88543820Y-90715283D01*
X88409102Y-90916903D01*
X88316307Y-91140931D01*
X88269000Y-91378757D01*
X80627000Y-91378757D01*
X80627000Y-91183019D01*
X85770505Y-91183019D01*
X85830813Y-91373000D01*
X86833000Y-91373000D01*
X86833000Y-90371373D01*
X87087000Y-90371373D01*
X87087000Y-91373000D01*
X88089187Y-91373000D01*
X88149495Y-91183019D01*
X88064799Y-90957051D01*
X87937647Y-90751948D01*
X87772924Y-90575592D01*
X87576961Y-90434761D01*
X87357288Y-90334866D01*
X87276980Y-90310511D01*
X87087000Y-90371373D01*
X86833000Y-90371373D01*
X86643020Y-90310511D01*
X86562712Y-90334866D01*
X86343039Y-90434761D01*
X86147076Y-90575592D01*
X85982353Y-90751948D01*
X85855201Y-90957051D01*
X85770505Y-91183019D01*
X80627000Y-91183019D01*
X80627000Y-89734840D01*
X96876945Y-89734840D01*
X97500000Y-90357895D01*
X97514143Y-90343753D01*
X97693748Y-90523358D01*
X97679605Y-90537500D01*
X98302660Y-91160555D01*
X98467861Y-91083712D01*
X98555824Y-90884396D01*
X98603213Y-90671749D01*
X98604374Y-90621057D01*
X101391795Y-90621057D01*
X101429389Y-90835652D01*
X101508128Y-91038789D01*
X101532139Y-91083712D01*
X101697340Y-91160555D01*
X102320395Y-90537500D01*
X102679605Y-90537500D01*
X103302660Y-91160555D01*
X103467861Y-91083712D01*
X103555824Y-90884396D01*
X103603213Y-90671749D01*
X103608205Y-90453943D01*
X103570611Y-90239348D01*
X103491872Y-90036211D01*
X103467861Y-89991288D01*
X103302660Y-89914445D01*
X102679605Y-90537500D01*
X102320395Y-90537500D01*
X101697340Y-89914445D01*
X101532139Y-89991288D01*
X101444176Y-90190604D01*
X101396787Y-90403251D01*
X101391795Y-90621057D01*
X98604374Y-90621057D01*
X98608205Y-90453943D01*
X98570611Y-90239348D01*
X98491872Y-90036211D01*
X98467861Y-89991288D01*
X98302662Y-89914446D01*
X98339173Y-89877935D01*
X98377426Y-89903494D01*
X98501360Y-89954829D01*
X98632927Y-89981000D01*
X98767073Y-89981000D01*
X98898640Y-89954829D01*
X99022574Y-89903494D01*
X99134112Y-89828967D01*
X99228239Y-89734840D01*
X101876945Y-89734840D01*
X102500000Y-90357895D01*
X103123055Y-89734840D01*
X103046212Y-89569639D01*
X102846896Y-89481676D01*
X102634249Y-89434287D01*
X102416443Y-89429295D01*
X102201848Y-89466889D01*
X101998711Y-89545628D01*
X101953788Y-89569639D01*
X101876945Y-89734840D01*
X99228239Y-89734840D01*
X99228967Y-89734112D01*
X99303494Y-89622574D01*
X99354829Y-89498640D01*
X99381000Y-89367073D01*
X99381000Y-89276980D01*
X115810511Y-89276980D01*
X115834866Y-89357288D01*
X115934761Y-89576961D01*
X116075592Y-89772924D01*
X116251948Y-89937647D01*
X116457051Y-90064799D01*
X116683019Y-90149495D01*
X116873000Y-90089187D01*
X116873000Y-89087000D01*
X117127000Y-89087000D01*
X117127000Y-90089187D01*
X117316981Y-90149495D01*
X117542949Y-90064799D01*
X117748052Y-89937647D01*
X117924408Y-89772924D01*
X118065239Y-89576961D01*
X118165134Y-89357288D01*
X118189489Y-89276980D01*
X118128627Y-89087000D01*
X117127000Y-89087000D01*
X116873000Y-89087000D01*
X115871373Y-89087000D01*
X115810511Y-89276980D01*
X99381000Y-89276980D01*
X99381000Y-89232927D01*
X99354829Y-89101360D01*
X99303494Y-88977426D01*
X99228967Y-88865888D01*
X99134112Y-88771033D01*
X99022574Y-88696506D01*
X98898640Y-88645171D01*
X98887827Y-88643020D01*
X115810511Y-88643020D01*
X115871373Y-88833000D01*
X116873000Y-88833000D01*
X116873000Y-87830813D01*
X117127000Y-87830813D01*
X117127000Y-88833000D01*
X118128627Y-88833000D01*
X118189489Y-88643020D01*
X118165134Y-88562712D01*
X118065239Y-88343039D01*
X117924408Y-88147076D01*
X117748052Y-87982353D01*
X117542949Y-87855201D01*
X117316981Y-87770505D01*
X117127000Y-87830813D01*
X116873000Y-87830813D01*
X116683019Y-87770505D01*
X116457051Y-87855201D01*
X116251948Y-87982353D01*
X116075592Y-88147076D01*
X115934761Y-88343039D01*
X115834866Y-88562712D01*
X115810511Y-88643020D01*
X98887827Y-88643020D01*
X98767073Y-88619000D01*
X98632927Y-88619000D01*
X98501360Y-88645171D01*
X98377426Y-88696506D01*
X98265888Y-88771033D01*
X98171033Y-88865888D01*
X98096506Y-88977426D01*
X98045171Y-89101360D01*
X98019000Y-89232927D01*
X98019000Y-89367073D01*
X98045171Y-89498640D01*
X98096506Y-89622574D01*
X98152106Y-89705786D01*
X98123054Y-89734838D01*
X98046212Y-89569639D01*
X97846896Y-89481676D01*
X97634249Y-89434287D01*
X97416443Y-89429295D01*
X97201848Y-89466889D01*
X96998711Y-89545628D01*
X96953788Y-89569639D01*
X96876945Y-89734840D01*
X80627000Y-89734840D01*
X80627000Y-85378757D01*
X96269000Y-85378757D01*
X96269000Y-85621243D01*
X96316307Y-85859069D01*
X96409102Y-86083097D01*
X96543820Y-86284717D01*
X96715283Y-86456180D01*
X96916903Y-86590898D01*
X97140931Y-86683693D01*
X97378757Y-86731000D01*
X97621243Y-86731000D01*
X97859069Y-86683693D01*
X98083097Y-86590898D01*
X98284717Y-86456180D01*
X98456180Y-86284717D01*
X98590898Y-86083097D01*
X98683693Y-85859069D01*
X98731000Y-85621243D01*
X98731000Y-85378757D01*
X98683693Y-85140931D01*
X98590898Y-84916903D01*
X98456180Y-84715283D01*
X98284717Y-84543820D01*
X98083097Y-84409102D01*
X97859069Y-84316307D01*
X97621243Y-84269000D01*
X97378757Y-84269000D01*
X97140931Y-84316307D01*
X96916903Y-84409102D01*
X96715283Y-84543820D01*
X96543820Y-84715283D01*
X96409102Y-84916903D01*
X96316307Y-85140931D01*
X96269000Y-85378757D01*
X80627000Y-85378757D01*
X80627000Y-81148757D01*
X115769000Y-81148757D01*
X115769000Y-81391243D01*
X115816307Y-81629069D01*
X115909102Y-81853097D01*
X116043820Y-82054717D01*
X116215283Y-82226180D01*
X116416903Y-82360898D01*
X116640931Y-82453693D01*
X116878757Y-82501000D01*
X117121243Y-82501000D01*
X117359069Y-82453693D01*
X117583097Y-82360898D01*
X117784717Y-82226180D01*
X117956180Y-82054717D01*
X118090898Y-81853097D01*
X118183693Y-81629069D01*
X118231000Y-81391243D01*
X118231000Y-81148757D01*
X118183693Y-80910931D01*
X118090898Y-80686903D01*
X117956180Y-80485283D01*
X117784717Y-80313820D01*
X117583097Y-80179102D01*
X117359069Y-80086307D01*
X117121243Y-80039000D01*
X116878757Y-80039000D01*
X116640931Y-80086307D01*
X116416903Y-80179102D01*
X116215283Y-80313820D01*
X116043820Y-80485283D01*
X115909102Y-80686903D01*
X115816307Y-80910931D01*
X115769000Y-81148757D01*
X80627000Y-81148757D01*
X80627000Y-79046980D01*
X115810511Y-79046980D01*
X115834866Y-79127288D01*
X115934761Y-79346961D01*
X116075592Y-79542924D01*
X116251948Y-79707647D01*
X116457051Y-79834799D01*
X116683019Y-79919495D01*
X116873000Y-79859187D01*
X116873000Y-78857000D01*
X117127000Y-78857000D01*
X117127000Y-79859187D01*
X117316981Y-79919495D01*
X117542949Y-79834799D01*
X117748052Y-79707647D01*
X117924408Y-79542924D01*
X118065239Y-79346961D01*
X118165134Y-79127288D01*
X118189489Y-79046980D01*
X118128627Y-78857000D01*
X117127000Y-78857000D01*
X116873000Y-78857000D01*
X115871373Y-78857000D01*
X115810511Y-79046980D01*
X80627000Y-79046980D01*
X80627000Y-78413020D01*
X115810511Y-78413020D01*
X115871373Y-78603000D01*
X116873000Y-78603000D01*
X116873000Y-77600813D01*
X117127000Y-77600813D01*
X117127000Y-78603000D01*
X118128627Y-78603000D01*
X118189489Y-78413020D01*
X118165134Y-78332712D01*
X118065239Y-78113039D01*
X117924408Y-77917076D01*
X117748052Y-77752353D01*
X117542949Y-77625201D01*
X117316981Y-77540505D01*
X117127000Y-77600813D01*
X116873000Y-77600813D01*
X116683019Y-77540505D01*
X116457051Y-77625201D01*
X116251948Y-77752353D01*
X116075592Y-77917076D01*
X115934761Y-78113039D01*
X115834866Y-78332712D01*
X115810511Y-78413020D01*
X80627000Y-78413020D01*
X80627000Y-69316981D01*
X85770505Y-69316981D01*
X85855201Y-69542949D01*
X85982353Y-69748052D01*
X86147076Y-69924408D01*
X86343039Y-70065239D01*
X86562712Y-70165134D01*
X86643020Y-70189489D01*
X86833000Y-70128627D01*
X86833000Y-69127000D01*
X87087000Y-69127000D01*
X87087000Y-70128627D01*
X87276980Y-70189489D01*
X87357288Y-70165134D01*
X87576961Y-70065239D01*
X87772924Y-69924408D01*
X87937647Y-69748052D01*
X88064799Y-69542949D01*
X88149495Y-69316981D01*
X88089187Y-69127000D01*
X87087000Y-69127000D01*
X86833000Y-69127000D01*
X85830813Y-69127000D01*
X85770505Y-69316981D01*
X80627000Y-69316981D01*
X80627000Y-68878757D01*
X88269000Y-68878757D01*
X88269000Y-69121243D01*
X88316307Y-69359069D01*
X88409102Y-69583097D01*
X88543820Y-69784717D01*
X88715283Y-69956180D01*
X88916903Y-70090898D01*
X89140931Y-70183693D01*
X89378757Y-70231000D01*
X89621243Y-70231000D01*
X89859069Y-70183693D01*
X90083097Y-70090898D01*
X90284717Y-69956180D01*
X90456180Y-69784717D01*
X90590898Y-69583097D01*
X90683693Y-69359069D01*
X90731000Y-69121243D01*
X90731000Y-68878757D01*
X90683693Y-68640931D01*
X90590898Y-68416903D01*
X90456180Y-68215283D01*
X90284717Y-68043820D01*
X90083097Y-67909102D01*
X89859069Y-67816307D01*
X89621243Y-67769000D01*
X89378757Y-67769000D01*
X89140931Y-67816307D01*
X88916903Y-67909102D01*
X88715283Y-68043820D01*
X88543820Y-68215283D01*
X88409102Y-68416903D01*
X88316307Y-68640931D01*
X88269000Y-68878757D01*
X80627000Y-68878757D01*
X80627000Y-68683019D01*
X85770505Y-68683019D01*
X85830813Y-68873000D01*
X86833000Y-68873000D01*
X86833000Y-67871373D01*
X87087000Y-67871373D01*
X87087000Y-68873000D01*
X88089187Y-68873000D01*
X88149495Y-68683019D01*
X88064799Y-68457051D01*
X87937647Y-68251948D01*
X87772924Y-68075592D01*
X87576961Y-67934761D01*
X87357288Y-67834866D01*
X87276980Y-67810511D01*
X87087000Y-67871373D01*
X86833000Y-67871373D01*
X86643020Y-67810511D01*
X86562712Y-67834866D01*
X86343039Y-67934761D01*
X86147076Y-68075592D01*
X85982353Y-68251948D01*
X85855201Y-68457051D01*
X85770505Y-68683019D01*
X80627000Y-68683019D01*
X80627000Y-63856980D01*
X115810511Y-63856980D01*
X115834866Y-63937288D01*
X115934761Y-64156961D01*
X116075592Y-64352924D01*
X116251948Y-64517647D01*
X116457051Y-64644799D01*
X116683019Y-64729495D01*
X116873000Y-64669187D01*
X116873000Y-63667000D01*
X117127000Y-63667000D01*
X117127000Y-64669187D01*
X117316981Y-64729495D01*
X117542949Y-64644799D01*
X117748052Y-64517647D01*
X117924408Y-64352924D01*
X118065239Y-64156961D01*
X118165134Y-63937288D01*
X118189489Y-63856980D01*
X118128627Y-63667000D01*
X117127000Y-63667000D01*
X116873000Y-63667000D01*
X115871373Y-63667000D01*
X115810511Y-63856980D01*
X80627000Y-63856980D01*
X80627000Y-63223020D01*
X115810511Y-63223020D01*
X115871373Y-63413000D01*
X116873000Y-63413000D01*
X116873000Y-62410813D01*
X117127000Y-62410813D01*
X117127000Y-63413000D01*
X118128627Y-63413000D01*
X118189489Y-63223020D01*
X118165134Y-63142712D01*
X118065239Y-62923039D01*
X117924408Y-62727076D01*
X117748052Y-62562353D01*
X117542949Y-62435201D01*
X117316981Y-62350505D01*
X117127000Y-62410813D01*
X116873000Y-62410813D01*
X116683019Y-62350505D01*
X116457051Y-62435201D01*
X116251948Y-62562353D01*
X116075592Y-62727076D01*
X115934761Y-62923039D01*
X115834866Y-63142712D01*
X115810511Y-63223020D01*
X80627000Y-63223020D01*
X80627000Y-60878757D01*
X115769000Y-60878757D01*
X115769000Y-61121243D01*
X115816307Y-61359069D01*
X115909102Y-61583097D01*
X116043820Y-61784717D01*
X116215283Y-61956180D01*
X116416903Y-62090898D01*
X116640931Y-62183693D01*
X116878757Y-62231000D01*
X117121243Y-62231000D01*
X117359069Y-62183693D01*
X117583097Y-62090898D01*
X117784717Y-61956180D01*
X117956180Y-61784717D01*
X118090898Y-61583097D01*
X118183693Y-61359069D01*
X118231000Y-61121243D01*
X118231000Y-60878757D01*
X118183693Y-60640931D01*
X118090898Y-60416903D01*
X117956180Y-60215283D01*
X117784717Y-60043820D01*
X117583097Y-59909102D01*
X117359069Y-59816307D01*
X117121243Y-59769000D01*
X116878757Y-59769000D01*
X116640931Y-59816307D01*
X116416903Y-59909102D01*
X116215283Y-60043820D01*
X116043820Y-60215283D01*
X115909102Y-60416903D01*
X115816307Y-60640931D01*
X115769000Y-60878757D01*
X80627000Y-60878757D01*
X80627000Y-58338757D01*
X115769000Y-58338757D01*
X115769000Y-58581243D01*
X115816307Y-58819069D01*
X115909102Y-59043097D01*
X116043820Y-59244717D01*
X116215283Y-59416180D01*
X116416903Y-59550898D01*
X116640931Y-59643693D01*
X116878757Y-59691000D01*
X117121243Y-59691000D01*
X117359069Y-59643693D01*
X117583097Y-59550898D01*
X117784717Y-59416180D01*
X117956180Y-59244717D01*
X118090898Y-59043097D01*
X118183693Y-58819069D01*
X118231000Y-58581243D01*
X118231000Y-58338757D01*
X118183693Y-58100931D01*
X118090898Y-57876903D01*
X117956180Y-57675283D01*
X117784717Y-57503820D01*
X117583097Y-57369102D01*
X117359069Y-57276307D01*
X117121243Y-57229000D01*
X116878757Y-57229000D01*
X116640931Y-57276307D01*
X116416903Y-57369102D01*
X116215283Y-57503820D01*
X116043820Y-57675283D01*
X115909102Y-57876903D01*
X115816307Y-58100931D01*
X115769000Y-58338757D01*
X80627000Y-58338757D01*
X80627000Y-55627000D01*
X119373000Y-55627000D01*
X119373000Y-94373000D01*
G04 #@! TA.AperFunction,Conductor*
D15*
G36*
X119373000Y-94373000D02*
G01*
X104100627Y-94373000D01*
X104103869Y-94370974D01*
X104245114Y-94238111D01*
X104357725Y-94080245D01*
X104437374Y-93903443D01*
X104481000Y-93714500D01*
X104481000Y-93364500D01*
X103627000Y-93364500D01*
X103627000Y-93384500D01*
X103373000Y-93384500D01*
X103373000Y-93364500D01*
X102519000Y-93364500D01*
X102519000Y-93714500D01*
X102562626Y-93903443D01*
X102642275Y-94080245D01*
X102754886Y-94238111D01*
X102896131Y-94370974D01*
X102899373Y-94373000D01*
X97100627Y-94373000D01*
X97103869Y-94370974D01*
X97245114Y-94238111D01*
X97357725Y-94080245D01*
X97437374Y-93903443D01*
X97481000Y-93714500D01*
X97481000Y-93364500D01*
X96627000Y-93364500D01*
X96627000Y-93384500D01*
X96373000Y-93384500D01*
X96373000Y-93364500D01*
X95519000Y-93364500D01*
X95519000Y-93714500D01*
X95562626Y-93903443D01*
X95642275Y-94080245D01*
X95754886Y-94238111D01*
X95896131Y-94370974D01*
X95899373Y-94373000D01*
X80627000Y-94373000D01*
X80627000Y-92760500D01*
X95519000Y-92760500D01*
X95519000Y-93110500D01*
X96373000Y-93110500D01*
X96373000Y-92010902D01*
X96627000Y-92010902D01*
X96627000Y-93110500D01*
X97481000Y-93110500D01*
X97481000Y-92760500D01*
X102519000Y-92760500D01*
X102519000Y-93110500D01*
X103373000Y-93110500D01*
X103373000Y-92010902D01*
X103627000Y-92010902D01*
X103627000Y-93110500D01*
X104481000Y-93110500D01*
X104481000Y-92760500D01*
X104437374Y-92571557D01*
X104357725Y-92394755D01*
X104245114Y-92236889D01*
X104103869Y-92104026D01*
X103939418Y-92001271D01*
X103777607Y-91946598D01*
X103627000Y-92010902D01*
X103373000Y-92010902D01*
X103222393Y-91946598D01*
X103060582Y-92001271D01*
X102896131Y-92104026D01*
X102754886Y-92236889D01*
X102642275Y-92394755D01*
X102562626Y-92571557D01*
X102519000Y-92760500D01*
X97481000Y-92760500D01*
X97437374Y-92571557D01*
X97357725Y-92394755D01*
X97245114Y-92236889D01*
X97103869Y-92104026D01*
X96939418Y-92001271D01*
X96777607Y-91946598D01*
X96627000Y-92010902D01*
X96373000Y-92010902D01*
X96222393Y-91946598D01*
X96060582Y-92001271D01*
X95896131Y-92104026D01*
X95754886Y-92236889D01*
X95642275Y-92394755D01*
X95562626Y-92571557D01*
X95519000Y-92760500D01*
X80627000Y-92760500D01*
X80627000Y-91816981D01*
X85770505Y-91816981D01*
X85855201Y-92042949D01*
X85982353Y-92248052D01*
X86147076Y-92424408D01*
X86343039Y-92565239D01*
X86562712Y-92665134D01*
X86643020Y-92689489D01*
X86833000Y-92628627D01*
X86833000Y-91627000D01*
X87087000Y-91627000D01*
X87087000Y-92628627D01*
X87276980Y-92689489D01*
X87357288Y-92665134D01*
X87576961Y-92565239D01*
X87772924Y-92424408D01*
X87937647Y-92248052D01*
X88064799Y-92042949D01*
X88149495Y-91816981D01*
X88089187Y-91627000D01*
X87087000Y-91627000D01*
X86833000Y-91627000D01*
X85830813Y-91627000D01*
X85770505Y-91816981D01*
X80627000Y-91816981D01*
X80627000Y-91378757D01*
X88269000Y-91378757D01*
X88269000Y-91621243D01*
X88316307Y-91859069D01*
X88409102Y-92083097D01*
X88543820Y-92284717D01*
X88715283Y-92456180D01*
X88916903Y-92590898D01*
X89140931Y-92683693D01*
X89378757Y-92731000D01*
X89621243Y-92731000D01*
X89859069Y-92683693D01*
X90083097Y-92590898D01*
X90284717Y-92456180D01*
X90456180Y-92284717D01*
X90590898Y-92083097D01*
X90683693Y-91859069D01*
X90692065Y-91816980D01*
X115810511Y-91816980D01*
X115834866Y-91897288D01*
X115934761Y-92116961D01*
X116075592Y-92312924D01*
X116251948Y-92477647D01*
X116457051Y-92604799D01*
X116683019Y-92689495D01*
X116873000Y-92629187D01*
X116873000Y-91627000D01*
X117127000Y-91627000D01*
X117127000Y-92629187D01*
X117316981Y-92689495D01*
X117542949Y-92604799D01*
X117748052Y-92477647D01*
X117924408Y-92312924D01*
X118065239Y-92116961D01*
X118165134Y-91897288D01*
X118189489Y-91816980D01*
X118128627Y-91627000D01*
X117127000Y-91627000D01*
X116873000Y-91627000D01*
X115871373Y-91627000D01*
X115810511Y-91816980D01*
X90692065Y-91816980D01*
X90731000Y-91621243D01*
X90731000Y-91378757D01*
X90723323Y-91340160D01*
X96876945Y-91340160D01*
X96953788Y-91505361D01*
X97153104Y-91593324D01*
X97365751Y-91640713D01*
X97583557Y-91645705D01*
X97798152Y-91608111D01*
X98001289Y-91529372D01*
X98046212Y-91505361D01*
X98123055Y-91340160D01*
X101876945Y-91340160D01*
X101953788Y-91505361D01*
X102153104Y-91593324D01*
X102365751Y-91640713D01*
X102583557Y-91645705D01*
X102798152Y-91608111D01*
X103001289Y-91529372D01*
X103046212Y-91505361D01*
X103123055Y-91340160D01*
X102965915Y-91183020D01*
X115810511Y-91183020D01*
X115871373Y-91373000D01*
X116873000Y-91373000D01*
X116873000Y-90370813D01*
X117127000Y-90370813D01*
X117127000Y-91373000D01*
X118128627Y-91373000D01*
X118189489Y-91183020D01*
X118165134Y-91102712D01*
X118065239Y-90883039D01*
X117924408Y-90687076D01*
X117748052Y-90522353D01*
X117542949Y-90395201D01*
X117316981Y-90310505D01*
X117127000Y-90370813D01*
X116873000Y-90370813D01*
X116683019Y-90310505D01*
X116457051Y-90395201D01*
X116251948Y-90522353D01*
X116075592Y-90687076D01*
X115934761Y-90883039D01*
X115834866Y-91102712D01*
X115810511Y-91183020D01*
X102965915Y-91183020D01*
X102500000Y-90717105D01*
X101876945Y-91340160D01*
X98123055Y-91340160D01*
X97500000Y-90717105D01*
X96876945Y-91340160D01*
X90723323Y-91340160D01*
X90683693Y-91140931D01*
X90590898Y-90916903D01*
X90456180Y-90715283D01*
X90361954Y-90621057D01*
X96391795Y-90621057D01*
X96429389Y-90835652D01*
X96508128Y-91038789D01*
X96532139Y-91083712D01*
X96697340Y-91160555D01*
X97320395Y-90537500D01*
X96697340Y-89914445D01*
X96532139Y-89991288D01*
X96444176Y-90190604D01*
X96396787Y-90403251D01*
X96391795Y-90621057D01*
X90361954Y-90621057D01*
X90284717Y-90543820D01*
X90083097Y-90409102D01*
X89859069Y-90316307D01*
X89621243Y-90269000D01*
X89378757Y-90269000D01*
X89140931Y-90316307D01*
X88916903Y-90409102D01*
X88715283Y-90543820D01*
X88543820Y-90715283D01*
X88409102Y-90916903D01*
X88316307Y-91140931D01*
X88269000Y-91378757D01*
X80627000Y-91378757D01*
X80627000Y-91183019D01*
X85770505Y-91183019D01*
X85830813Y-91373000D01*
X86833000Y-91373000D01*
X86833000Y-90371373D01*
X87087000Y-90371373D01*
X87087000Y-91373000D01*
X88089187Y-91373000D01*
X88149495Y-91183019D01*
X88064799Y-90957051D01*
X87937647Y-90751948D01*
X87772924Y-90575592D01*
X87576961Y-90434761D01*
X87357288Y-90334866D01*
X87276980Y-90310511D01*
X87087000Y-90371373D01*
X86833000Y-90371373D01*
X86643020Y-90310511D01*
X86562712Y-90334866D01*
X86343039Y-90434761D01*
X86147076Y-90575592D01*
X85982353Y-90751948D01*
X85855201Y-90957051D01*
X85770505Y-91183019D01*
X80627000Y-91183019D01*
X80627000Y-89734840D01*
X96876945Y-89734840D01*
X97500000Y-90357895D01*
X97514143Y-90343753D01*
X97693748Y-90523358D01*
X97679605Y-90537500D01*
X98302660Y-91160555D01*
X98467861Y-91083712D01*
X98555824Y-90884396D01*
X98603213Y-90671749D01*
X98604374Y-90621057D01*
X101391795Y-90621057D01*
X101429389Y-90835652D01*
X101508128Y-91038789D01*
X101532139Y-91083712D01*
X101697340Y-91160555D01*
X102320395Y-90537500D01*
X102679605Y-90537500D01*
X103302660Y-91160555D01*
X103467861Y-91083712D01*
X103555824Y-90884396D01*
X103603213Y-90671749D01*
X103608205Y-90453943D01*
X103570611Y-90239348D01*
X103491872Y-90036211D01*
X103467861Y-89991288D01*
X103302660Y-89914445D01*
X102679605Y-90537500D01*
X102320395Y-90537500D01*
X101697340Y-89914445D01*
X101532139Y-89991288D01*
X101444176Y-90190604D01*
X101396787Y-90403251D01*
X101391795Y-90621057D01*
X98604374Y-90621057D01*
X98608205Y-90453943D01*
X98570611Y-90239348D01*
X98491872Y-90036211D01*
X98467861Y-89991288D01*
X98302662Y-89914446D01*
X98339173Y-89877935D01*
X98377426Y-89903494D01*
X98501360Y-89954829D01*
X98632927Y-89981000D01*
X98767073Y-89981000D01*
X98898640Y-89954829D01*
X99022574Y-89903494D01*
X99134112Y-89828967D01*
X99228239Y-89734840D01*
X101876945Y-89734840D01*
X102500000Y-90357895D01*
X103123055Y-89734840D01*
X103046212Y-89569639D01*
X102846896Y-89481676D01*
X102634249Y-89434287D01*
X102416443Y-89429295D01*
X102201848Y-89466889D01*
X101998711Y-89545628D01*
X101953788Y-89569639D01*
X101876945Y-89734840D01*
X99228239Y-89734840D01*
X99228967Y-89734112D01*
X99303494Y-89622574D01*
X99354829Y-89498640D01*
X99381000Y-89367073D01*
X99381000Y-89276980D01*
X115810511Y-89276980D01*
X115834866Y-89357288D01*
X115934761Y-89576961D01*
X116075592Y-89772924D01*
X116251948Y-89937647D01*
X116457051Y-90064799D01*
X116683019Y-90149495D01*
X116873000Y-90089187D01*
X116873000Y-89087000D01*
X117127000Y-89087000D01*
X117127000Y-90089187D01*
X117316981Y-90149495D01*
X117542949Y-90064799D01*
X117748052Y-89937647D01*
X117924408Y-89772924D01*
X118065239Y-89576961D01*
X118165134Y-89357288D01*
X118189489Y-89276980D01*
X118128627Y-89087000D01*
X117127000Y-89087000D01*
X116873000Y-89087000D01*
X115871373Y-89087000D01*
X115810511Y-89276980D01*
X99381000Y-89276980D01*
X99381000Y-89232927D01*
X99354829Y-89101360D01*
X99303494Y-88977426D01*
X99228967Y-88865888D01*
X99134112Y-88771033D01*
X99022574Y-88696506D01*
X98898640Y-88645171D01*
X98887827Y-88643020D01*
X115810511Y-88643020D01*
X115871373Y-88833000D01*
X116873000Y-88833000D01*
X116873000Y-87830813D01*
X117127000Y-87830813D01*
X117127000Y-88833000D01*
X118128627Y-88833000D01*
X118189489Y-88643020D01*
X118165134Y-88562712D01*
X118065239Y-88343039D01*
X117924408Y-88147076D01*
X117748052Y-87982353D01*
X117542949Y-87855201D01*
X117316981Y-87770505D01*
X117127000Y-87830813D01*
X116873000Y-87830813D01*
X116683019Y-87770505D01*
X116457051Y-87855201D01*
X116251948Y-87982353D01*
X116075592Y-88147076D01*
X115934761Y-88343039D01*
X115834866Y-88562712D01*
X115810511Y-88643020D01*
X98887827Y-88643020D01*
X98767073Y-88619000D01*
X98632927Y-88619000D01*
X98501360Y-88645171D01*
X98377426Y-88696506D01*
X98265888Y-88771033D01*
X98171033Y-88865888D01*
X98096506Y-88977426D01*
X98045171Y-89101360D01*
X98019000Y-89232927D01*
X98019000Y-89367073D01*
X98045171Y-89498640D01*
X98096506Y-89622574D01*
X98152106Y-89705786D01*
X98123054Y-89734838D01*
X98046212Y-89569639D01*
X97846896Y-89481676D01*
X97634249Y-89434287D01*
X97416443Y-89429295D01*
X97201848Y-89466889D01*
X96998711Y-89545628D01*
X96953788Y-89569639D01*
X96876945Y-89734840D01*
X80627000Y-89734840D01*
X80627000Y-85378757D01*
X96269000Y-85378757D01*
X96269000Y-85621243D01*
X96316307Y-85859069D01*
X96409102Y-86083097D01*
X96543820Y-86284717D01*
X96715283Y-86456180D01*
X96916903Y-86590898D01*
X97140931Y-86683693D01*
X97378757Y-86731000D01*
X97621243Y-86731000D01*
X97859069Y-86683693D01*
X98083097Y-86590898D01*
X98284717Y-86456180D01*
X98456180Y-86284717D01*
X98590898Y-86083097D01*
X98683693Y-85859069D01*
X98731000Y-85621243D01*
X98731000Y-85378757D01*
X98683693Y-85140931D01*
X98590898Y-84916903D01*
X98456180Y-84715283D01*
X98284717Y-84543820D01*
X98083097Y-84409102D01*
X97859069Y-84316307D01*
X97621243Y-84269000D01*
X97378757Y-84269000D01*
X97140931Y-84316307D01*
X96916903Y-84409102D01*
X96715283Y-84543820D01*
X96543820Y-84715283D01*
X96409102Y-84916903D01*
X96316307Y-85140931D01*
X96269000Y-85378757D01*
X80627000Y-85378757D01*
X80627000Y-81148757D01*
X115769000Y-81148757D01*
X115769000Y-81391243D01*
X115816307Y-81629069D01*
X115909102Y-81853097D01*
X116043820Y-82054717D01*
X116215283Y-82226180D01*
X116416903Y-82360898D01*
X116640931Y-82453693D01*
X116878757Y-82501000D01*
X117121243Y-82501000D01*
X117359069Y-82453693D01*
X117583097Y-82360898D01*
X117784717Y-82226180D01*
X117956180Y-82054717D01*
X118090898Y-81853097D01*
X118183693Y-81629069D01*
X118231000Y-81391243D01*
X118231000Y-81148757D01*
X118183693Y-80910931D01*
X118090898Y-80686903D01*
X117956180Y-80485283D01*
X117784717Y-80313820D01*
X117583097Y-80179102D01*
X117359069Y-80086307D01*
X117121243Y-80039000D01*
X116878757Y-80039000D01*
X116640931Y-80086307D01*
X116416903Y-80179102D01*
X116215283Y-80313820D01*
X116043820Y-80485283D01*
X115909102Y-80686903D01*
X115816307Y-80910931D01*
X115769000Y-81148757D01*
X80627000Y-81148757D01*
X80627000Y-79046980D01*
X115810511Y-79046980D01*
X115834866Y-79127288D01*
X115934761Y-79346961D01*
X116075592Y-79542924D01*
X116251948Y-79707647D01*
X116457051Y-79834799D01*
X116683019Y-79919495D01*
X116873000Y-79859187D01*
X116873000Y-78857000D01*
X117127000Y-78857000D01*
X117127000Y-79859187D01*
X117316981Y-79919495D01*
X117542949Y-79834799D01*
X117748052Y-79707647D01*
X117924408Y-79542924D01*
X118065239Y-79346961D01*
X118165134Y-79127288D01*
X118189489Y-79046980D01*
X118128627Y-78857000D01*
X117127000Y-78857000D01*
X116873000Y-78857000D01*
X115871373Y-78857000D01*
X115810511Y-79046980D01*
X80627000Y-79046980D01*
X80627000Y-78413020D01*
X115810511Y-78413020D01*
X115871373Y-78603000D01*
X116873000Y-78603000D01*
X116873000Y-77600813D01*
X117127000Y-77600813D01*
X117127000Y-78603000D01*
X118128627Y-78603000D01*
X118189489Y-78413020D01*
X118165134Y-78332712D01*
X118065239Y-78113039D01*
X117924408Y-77917076D01*
X117748052Y-77752353D01*
X117542949Y-77625201D01*
X117316981Y-77540505D01*
X117127000Y-77600813D01*
X116873000Y-77600813D01*
X116683019Y-77540505D01*
X116457051Y-77625201D01*
X116251948Y-77752353D01*
X116075592Y-77917076D01*
X115934761Y-78113039D01*
X115834866Y-78332712D01*
X115810511Y-78413020D01*
X80627000Y-78413020D01*
X80627000Y-69316981D01*
X85770505Y-69316981D01*
X85855201Y-69542949D01*
X85982353Y-69748052D01*
X86147076Y-69924408D01*
X86343039Y-70065239D01*
X86562712Y-70165134D01*
X86643020Y-70189489D01*
X86833000Y-70128627D01*
X86833000Y-69127000D01*
X87087000Y-69127000D01*
X87087000Y-70128627D01*
X87276980Y-70189489D01*
X87357288Y-70165134D01*
X87576961Y-70065239D01*
X87772924Y-69924408D01*
X87937647Y-69748052D01*
X88064799Y-69542949D01*
X88149495Y-69316981D01*
X88089187Y-69127000D01*
X87087000Y-69127000D01*
X86833000Y-69127000D01*
X85830813Y-69127000D01*
X85770505Y-69316981D01*
X80627000Y-69316981D01*
X80627000Y-68878757D01*
X88269000Y-68878757D01*
X88269000Y-69121243D01*
X88316307Y-69359069D01*
X88409102Y-69583097D01*
X88543820Y-69784717D01*
X88715283Y-69956180D01*
X88916903Y-70090898D01*
X89140931Y-70183693D01*
X89378757Y-70231000D01*
X89621243Y-70231000D01*
X89859069Y-70183693D01*
X90083097Y-70090898D01*
X90284717Y-69956180D01*
X90456180Y-69784717D01*
X90590898Y-69583097D01*
X90683693Y-69359069D01*
X90731000Y-69121243D01*
X90731000Y-68878757D01*
X90683693Y-68640931D01*
X90590898Y-68416903D01*
X90456180Y-68215283D01*
X90284717Y-68043820D01*
X90083097Y-67909102D01*
X89859069Y-67816307D01*
X89621243Y-67769000D01*
X89378757Y-67769000D01*
X89140931Y-67816307D01*
X88916903Y-67909102D01*
X88715283Y-68043820D01*
X88543820Y-68215283D01*
X88409102Y-68416903D01*
X88316307Y-68640931D01*
X88269000Y-68878757D01*
X80627000Y-68878757D01*
X80627000Y-68683019D01*
X85770505Y-68683019D01*
X85830813Y-68873000D01*
X86833000Y-68873000D01*
X86833000Y-67871373D01*
X87087000Y-67871373D01*
X87087000Y-68873000D01*
X88089187Y-68873000D01*
X88149495Y-68683019D01*
X88064799Y-68457051D01*
X87937647Y-68251948D01*
X87772924Y-68075592D01*
X87576961Y-67934761D01*
X87357288Y-67834866D01*
X87276980Y-67810511D01*
X87087000Y-67871373D01*
X86833000Y-67871373D01*
X86643020Y-67810511D01*
X86562712Y-67834866D01*
X86343039Y-67934761D01*
X86147076Y-68075592D01*
X85982353Y-68251948D01*
X85855201Y-68457051D01*
X85770505Y-68683019D01*
X80627000Y-68683019D01*
X80627000Y-63856980D01*
X115810511Y-63856980D01*
X115834866Y-63937288D01*
X115934761Y-64156961D01*
X116075592Y-64352924D01*
X116251948Y-64517647D01*
X116457051Y-64644799D01*
X116683019Y-64729495D01*
X116873000Y-64669187D01*
X116873000Y-63667000D01*
X117127000Y-63667000D01*
X117127000Y-64669187D01*
X117316981Y-64729495D01*
X117542949Y-64644799D01*
X117748052Y-64517647D01*
X117924408Y-64352924D01*
X118065239Y-64156961D01*
X118165134Y-63937288D01*
X118189489Y-63856980D01*
X118128627Y-63667000D01*
X117127000Y-63667000D01*
X116873000Y-63667000D01*
X115871373Y-63667000D01*
X115810511Y-63856980D01*
X80627000Y-63856980D01*
X80627000Y-63223020D01*
X115810511Y-63223020D01*
X115871373Y-63413000D01*
X116873000Y-63413000D01*
X116873000Y-62410813D01*
X117127000Y-62410813D01*
X117127000Y-63413000D01*
X118128627Y-63413000D01*
X118189489Y-63223020D01*
X118165134Y-63142712D01*
X118065239Y-62923039D01*
X117924408Y-62727076D01*
X117748052Y-62562353D01*
X117542949Y-62435201D01*
X117316981Y-62350505D01*
X117127000Y-62410813D01*
X116873000Y-62410813D01*
X116683019Y-62350505D01*
X116457051Y-62435201D01*
X116251948Y-62562353D01*
X116075592Y-62727076D01*
X115934761Y-62923039D01*
X115834866Y-63142712D01*
X115810511Y-63223020D01*
X80627000Y-63223020D01*
X80627000Y-60878757D01*
X115769000Y-60878757D01*
X115769000Y-61121243D01*
X115816307Y-61359069D01*
X115909102Y-61583097D01*
X116043820Y-61784717D01*
X116215283Y-61956180D01*
X116416903Y-62090898D01*
X116640931Y-62183693D01*
X116878757Y-62231000D01*
X117121243Y-62231000D01*
X117359069Y-62183693D01*
X117583097Y-62090898D01*
X117784717Y-61956180D01*
X117956180Y-61784717D01*
X118090898Y-61583097D01*
X118183693Y-61359069D01*
X118231000Y-61121243D01*
X118231000Y-60878757D01*
X118183693Y-60640931D01*
X118090898Y-60416903D01*
X117956180Y-60215283D01*
X117784717Y-60043820D01*
X117583097Y-59909102D01*
X117359069Y-59816307D01*
X117121243Y-59769000D01*
X116878757Y-59769000D01*
X116640931Y-59816307D01*
X116416903Y-59909102D01*
X116215283Y-60043820D01*
X116043820Y-60215283D01*
X115909102Y-60416903D01*
X115816307Y-60640931D01*
X115769000Y-60878757D01*
X80627000Y-60878757D01*
X80627000Y-58338757D01*
X115769000Y-58338757D01*
X115769000Y-58581243D01*
X115816307Y-58819069D01*
X115909102Y-59043097D01*
X116043820Y-59244717D01*
X116215283Y-59416180D01*
X116416903Y-59550898D01*
X116640931Y-59643693D01*
X116878757Y-59691000D01*
X117121243Y-59691000D01*
X117359069Y-59643693D01*
X117583097Y-59550898D01*
X117784717Y-59416180D01*
X117956180Y-59244717D01*
X118090898Y-59043097D01*
X118183693Y-58819069D01*
X118231000Y-58581243D01*
X118231000Y-58338757D01*
X118183693Y-58100931D01*
X118090898Y-57876903D01*
X117956180Y-57675283D01*
X117784717Y-57503820D01*
X117583097Y-57369102D01*
X117359069Y-57276307D01*
X117121243Y-57229000D01*
X116878757Y-57229000D01*
X116640931Y-57276307D01*
X116416903Y-57369102D01*
X116215283Y-57503820D01*
X116043820Y-57675283D01*
X115909102Y-57876903D01*
X115816307Y-58100931D01*
X115769000Y-58338757D01*
X80627000Y-58338757D01*
X80627000Y-55627000D01*
X119373000Y-55627000D01*
X119373000Y-94373000D01*
G37*
G04 #@! TD.AperFunction*
M02*
