G04 #@! TF.GenerationSoftware,KiCad,Pcbnew,5.1.10-88a1d61d58~90~ubuntu20.04.1*
G04 #@! TF.CreationDate,2021-11-08T15:05:55+08:00*
G04 #@! TF.ProjectId,esp32-c3-test,65737033-322d-4633-932d-746573742e6b,rev?*
G04 #@! TF.SameCoordinates,Original*
G04 #@! TF.FileFunction,Legend,Top*
G04 #@! TF.FilePolarity,Positive*
%FSLAX46Y46*%
G04 Gerber Fmt 4.6, Leading zero omitted, Abs format (unit mm)*
G04 Created by KiCad (PCBNEW 5.1.10-88a1d61d58~90~ubuntu20.04.1) date 2021-11-08 15:05:55*
%MOMM*%
%LPD*%
G01*
G04 APERTURE LIST*
%ADD10C,0.150000*%
%ADD11C,0.120000*%
%ADD12C,0.100000*%
%ADD13R,0.400000X0.800000*%
%ADD14R,0.700000X0.700000*%
%ADD15R,0.800000X0.400000*%
%ADD16R,1.450000X1.450000*%
%ADD17O,1.700000X1.700000*%
%ADD18R,0.900000X0.800000*%
%ADD19R,1.500000X2.000000*%
%ADD20R,3.800000X2.000000*%
%ADD21R,1.200000X1.900000*%
%ADD22O,1.200000X1.900000*%
%ADD23R,1.500000X1.900000*%
%ADD24C,1.450000*%
%ADD25R,0.400000X1.350000*%
G04 APERTURE END LIST*
D10*
X112738095Y-91000000D02*
X112642857Y-90952380D01*
X112500000Y-90952380D01*
X112357142Y-91000000D01*
X112261904Y-91095238D01*
X112214285Y-91190476D01*
X112166666Y-91380952D01*
X112166666Y-91523809D01*
X112214285Y-91714285D01*
X112261904Y-91809523D01*
X112357142Y-91904761D01*
X112500000Y-91952380D01*
X112595238Y-91952380D01*
X112738095Y-91904761D01*
X112785714Y-91857142D01*
X112785714Y-91523809D01*
X112595238Y-91523809D01*
X113214285Y-91952380D02*
X113214285Y-90952380D01*
X113785714Y-91952380D01*
X113785714Y-90952380D01*
X114261904Y-91952380D02*
X114261904Y-90952380D01*
X114500000Y-90952380D01*
X114642857Y-91000000D01*
X114738095Y-91095238D01*
X114785714Y-91190476D01*
X114833333Y-91380952D01*
X114833333Y-91523809D01*
X114785714Y-91714285D01*
X114738095Y-91809523D01*
X114642857Y-91904761D01*
X114500000Y-91952380D01*
X114261904Y-91952380D01*
X110071428Y-87952380D02*
X110309523Y-88952380D01*
X110500000Y-88238095D01*
X110690476Y-88952380D01*
X110928571Y-87952380D01*
X108809523Y-88857142D02*
X108761904Y-88904761D01*
X108619047Y-88952380D01*
X108523809Y-88952380D01*
X108380952Y-88904761D01*
X108285714Y-88809523D01*
X108238095Y-88714285D01*
X108190476Y-88523809D01*
X108190476Y-88380952D01*
X108238095Y-88190476D01*
X108285714Y-88095238D01*
X108380952Y-88000000D01*
X108523809Y-87952380D01*
X108619047Y-87952380D01*
X108761904Y-88000000D01*
X108809523Y-88047619D01*
X106571428Y-88428571D02*
X106714285Y-88476190D01*
X106761904Y-88523809D01*
X106809523Y-88619047D01*
X106809523Y-88761904D01*
X106761904Y-88857142D01*
X106714285Y-88904761D01*
X106619047Y-88952380D01*
X106238095Y-88952380D01*
X106238095Y-87952380D01*
X106571428Y-87952380D01*
X106666666Y-88000000D01*
X106714285Y-88047619D01*
X106761904Y-88142857D01*
X106761904Y-88238095D01*
X106714285Y-88333333D01*
X106666666Y-88380952D01*
X106571428Y-88428571D01*
X106238095Y-88428571D01*
X104761904Y-88000000D02*
X104666666Y-87952380D01*
X104523809Y-87952380D01*
X104380952Y-88000000D01*
X104285714Y-88095238D01*
X104238095Y-88190476D01*
X104190476Y-88380952D01*
X104190476Y-88523809D01*
X104238095Y-88714285D01*
X104285714Y-88809523D01*
X104380952Y-88904761D01*
X104523809Y-88952380D01*
X104619047Y-88952380D01*
X104761904Y-88904761D01*
X104809523Y-88857142D01*
X104809523Y-88523809D01*
X104619047Y-88523809D01*
X102809523Y-88952380D02*
X102476190Y-88476190D01*
X102238095Y-88952380D02*
X102238095Y-87952380D01*
X102619047Y-87952380D01*
X102714285Y-88000000D01*
X102761904Y-88047619D01*
X102809523Y-88142857D01*
X102809523Y-88285714D01*
X102761904Y-88380952D01*
X102714285Y-88428571D01*
X102619047Y-88476190D01*
X102238095Y-88476190D01*
X92309523Y-90952380D02*
X91833333Y-90952380D01*
X91785714Y-91428571D01*
X91833333Y-91380952D01*
X91928571Y-91333333D01*
X92166666Y-91333333D01*
X92261904Y-91380952D01*
X92309523Y-91428571D01*
X92357142Y-91523809D01*
X92357142Y-91761904D01*
X92309523Y-91857142D01*
X92261904Y-91904761D01*
X92166666Y-91952380D01*
X91928571Y-91952380D01*
X91833333Y-91904761D01*
X91785714Y-91857142D01*
X92642857Y-90952380D02*
X92976190Y-91952380D01*
X93309523Y-90952380D01*
X91261904Y-68452380D02*
X91880952Y-68452380D01*
X91547619Y-68833333D01*
X91690476Y-68833333D01*
X91785714Y-68880952D01*
X91833333Y-68928571D01*
X91880952Y-69023809D01*
X91880952Y-69261904D01*
X91833333Y-69357142D01*
X91785714Y-69404761D01*
X91690476Y-69452380D01*
X91404761Y-69452380D01*
X91309523Y-69404761D01*
X91261904Y-69357142D01*
X92166666Y-68452380D02*
X92500000Y-69452380D01*
X92833333Y-68452380D01*
X93071428Y-68452380D02*
X93690476Y-68452380D01*
X93357142Y-68833333D01*
X93500000Y-68833333D01*
X93595238Y-68880952D01*
X93642857Y-68928571D01*
X93690476Y-69023809D01*
X93690476Y-69261904D01*
X93642857Y-69357142D01*
X93595238Y-69404761D01*
X93500000Y-69452380D01*
X93214285Y-69452380D01*
X93119047Y-69404761D01*
X93071428Y-69357142D01*
X116000000Y-84452380D02*
X116000000Y-83452380D01*
X116666666Y-83452380D02*
X116857142Y-83452380D01*
X116952380Y-83500000D01*
X117047619Y-83595238D01*
X117095238Y-83785714D01*
X117095238Y-84119047D01*
X117047619Y-84309523D01*
X116952380Y-84404761D01*
X116857142Y-84452380D01*
X116666666Y-84452380D01*
X116571428Y-84404761D01*
X116476190Y-84309523D01*
X116428571Y-84119047D01*
X116428571Y-83785714D01*
X116476190Y-83595238D01*
X116571428Y-83500000D01*
X116666666Y-83452380D01*
X117571428Y-84452380D02*
X117761904Y-84452380D01*
X117857142Y-84404761D01*
X117904761Y-84357142D01*
X118000000Y-84214285D01*
X118047619Y-84023809D01*
X118047619Y-83642857D01*
X118000000Y-83547619D01*
X117952380Y-83500000D01*
X117857142Y-83452380D01*
X117666666Y-83452380D01*
X117571428Y-83500000D01*
X117523809Y-83547619D01*
X117476190Y-83642857D01*
X117476190Y-83880952D01*
X117523809Y-83976190D01*
X117571428Y-84023809D01*
X117666666Y-84071428D01*
X117857142Y-84071428D01*
X117952380Y-84023809D01*
X118000000Y-83976190D01*
X118047619Y-83880952D01*
X113238095Y-57952380D02*
X113809523Y-57952380D01*
X113523809Y-58952380D02*
X113523809Y-57952380D01*
X114047619Y-57952380D02*
X114714285Y-58952380D01*
X114714285Y-57952380D02*
X114047619Y-58952380D01*
X113833333Y-61452380D02*
X113500000Y-60976190D01*
X113261904Y-61452380D02*
X113261904Y-60452380D01*
X113642857Y-60452380D01*
X113738095Y-60500000D01*
X113785714Y-60547619D01*
X113833333Y-60642857D01*
X113833333Y-60785714D01*
X113785714Y-60880952D01*
X113738095Y-60928571D01*
X113642857Y-60976190D01*
X113261904Y-60976190D01*
X114166666Y-60452380D02*
X114833333Y-61452380D01*
X114833333Y-60452380D02*
X114166666Y-61452380D01*
D11*
X93000000Y-59000000D02*
X93000000Y-63000000D01*
X98000000Y-67000000D02*
X102000000Y-67000000D01*
X107000000Y-59000000D02*
X107000000Y-63000000D01*
X118330000Y-87630000D02*
X115670000Y-87630000D01*
X118330000Y-92830000D02*
X118330000Y-87630000D01*
X115670000Y-92830000D02*
X115670000Y-87630000D01*
X118330000Y-92830000D02*
X115670000Y-92830000D01*
X85630000Y-67670000D02*
X85630000Y-70330000D01*
X90830000Y-67670000D02*
X85630000Y-67670000D01*
X90830000Y-70330000D02*
X85630000Y-70330000D01*
X90830000Y-67670000D02*
X90830000Y-70330000D01*
X85630000Y-90170000D02*
X85630000Y-92830000D01*
X90830000Y-90170000D02*
X85630000Y-90170000D01*
X90830000Y-92830000D02*
X85630000Y-92830000D01*
X90830000Y-90170000D02*
X90830000Y-92830000D01*
X118330000Y-77400000D02*
X115670000Y-77400000D01*
X118330000Y-82600000D02*
X118330000Y-77400000D01*
X115670000Y-82600000D02*
X115670000Y-77400000D01*
X118330000Y-82600000D02*
X115670000Y-82600000D01*
X87750000Y-76010000D02*
X92135000Y-76010000D01*
X92135000Y-76010000D02*
X92135000Y-72990000D01*
X92135000Y-72990000D02*
X87750000Y-72990000D01*
X87750000Y-89010000D02*
X92135000Y-89010000D01*
X92135000Y-89010000D02*
X92135000Y-85990000D01*
X92135000Y-85990000D02*
X87750000Y-85990000D01*
X87750000Y-60110000D02*
X92135000Y-60110000D01*
X92135000Y-60110000D02*
X92135000Y-57090000D01*
X92135000Y-57090000D02*
X87750000Y-57090000D01*
X115670000Y-64870000D02*
X118330000Y-64870000D01*
X115670000Y-57130000D02*
X115670000Y-64870000D01*
X118330000Y-57130000D02*
X118330000Y-64870000D01*
X115670000Y-57130000D02*
X118330000Y-57130000D01*
X90667224Y-62022500D02*
X90157776Y-62022500D01*
X90667224Y-60977500D02*
X90157776Y-60977500D01*
X96010000Y-74353733D02*
X96010000Y-74646267D01*
X94990000Y-74353733D02*
X94990000Y-74646267D01*
X92977500Y-74754724D02*
X92977500Y-74245276D01*
X94022500Y-74754724D02*
X94022500Y-74245276D01*
X113760000Y-76080000D02*
X113760000Y-75150000D01*
X113760000Y-72920000D02*
X113760000Y-73850000D01*
X113760000Y-72920000D02*
X111600000Y-72920000D01*
X113760000Y-76080000D02*
X112300000Y-76080000D01*
X110260000Y-76080000D02*
X110260000Y-75150000D01*
X110260000Y-72920000D02*
X110260000Y-73850000D01*
X110260000Y-72920000D02*
X108100000Y-72920000D01*
X110260000Y-76080000D02*
X108800000Y-76080000D01*
X106260000Y-76080000D02*
X106260000Y-75150000D01*
X106260000Y-72920000D02*
X106260000Y-73850000D01*
X106260000Y-72920000D02*
X104100000Y-72920000D01*
X106260000Y-76080000D02*
X104800000Y-76080000D01*
X102760000Y-76080000D02*
X102760000Y-75150000D01*
X102760000Y-72920000D02*
X102760000Y-73850000D01*
X102760000Y-72920000D02*
X100600000Y-72920000D01*
X102760000Y-76080000D02*
X101300000Y-76080000D01*
X99260000Y-76080000D02*
X99260000Y-75150000D01*
X99260000Y-72920000D02*
X99260000Y-73850000D01*
X99260000Y-72920000D02*
X97100000Y-72920000D01*
X99260000Y-76080000D02*
X97800000Y-76080000D01*
X92910000Y-79090000D02*
X91650000Y-79090000D01*
X86090000Y-79090000D02*
X87350000Y-79090000D01*
X92910000Y-82850000D02*
X92910000Y-79090000D01*
X86090000Y-85100000D02*
X86090000Y-79090000D01*
X109977500Y-80254724D02*
X109977500Y-79745276D01*
X111022500Y-80254724D02*
X111022500Y-79745276D01*
X107977500Y-80254724D02*
X107977500Y-79745276D01*
X109022500Y-80254724D02*
X109022500Y-79745276D01*
X105977500Y-80254724D02*
X105977500Y-79745276D01*
X107022500Y-80254724D02*
X107022500Y-79745276D01*
X103977500Y-80254724D02*
X103977500Y-79745276D01*
X105022500Y-80254724D02*
X105022500Y-79745276D01*
X101977500Y-80254724D02*
X101977500Y-79745276D01*
X103022500Y-80254724D02*
X103022500Y-79745276D01*
X98022500Y-79745276D02*
X98022500Y-80254724D01*
X96977500Y-79745276D02*
X96977500Y-80254724D01*
X96100000Y-90237500D02*
X96550000Y-90237500D01*
X96100000Y-92087500D02*
X96100000Y-90237500D01*
X103900000Y-94637500D02*
X103900000Y-94387500D01*
X96100000Y-94637500D02*
X96100000Y-94387500D01*
X103900000Y-92087500D02*
X103900000Y-90237500D01*
X103900000Y-90237500D02*
X103450000Y-90237500D01*
X98300000Y-89687500D02*
X98750000Y-89687500D01*
X98300000Y-89687500D02*
X98300000Y-90137500D01*
X111410000Y-86500000D02*
X111410000Y-83615000D01*
X111410000Y-83615000D02*
X109590000Y-83615000D01*
X109590000Y-83615000D02*
X109590000Y-86500000D01*
X109410000Y-86500000D02*
X109410000Y-83615000D01*
X109410000Y-83615000D02*
X107590000Y-83615000D01*
X107590000Y-83615000D02*
X107590000Y-86500000D01*
X107410000Y-86500000D02*
X107410000Y-83615000D01*
X107410000Y-83615000D02*
X105590000Y-83615000D01*
X105590000Y-83615000D02*
X105590000Y-86500000D01*
X105410000Y-86500000D02*
X105410000Y-83615000D01*
X105410000Y-83615000D02*
X103590000Y-83615000D01*
X103590000Y-83615000D02*
X103590000Y-86500000D01*
X103410000Y-86500000D02*
X103410000Y-83615000D01*
X103410000Y-83615000D02*
X101590000Y-83615000D01*
X101590000Y-83615000D02*
X101590000Y-86500000D01*
D10*
X99238095Y-67452380D02*
X99238095Y-68261904D01*
X99285714Y-68357142D01*
X99333333Y-68404761D01*
X99428571Y-68452380D01*
X99619047Y-68452380D01*
X99714285Y-68404761D01*
X99761904Y-68357142D01*
X99809523Y-68261904D01*
X99809523Y-67452380D01*
X100809523Y-68452380D02*
X100238095Y-68452380D01*
X100523809Y-68452380D02*
X100523809Y-67452380D01*
X100428571Y-67595238D01*
X100333333Y-67690476D01*
X100238095Y-67738095D01*
X84833333Y-74857142D02*
X84785714Y-74904761D01*
X84642857Y-74952380D01*
X84547619Y-74952380D01*
X84404761Y-74904761D01*
X84309523Y-74809523D01*
X84261904Y-74714285D01*
X84214285Y-74523809D01*
X84214285Y-74380952D01*
X84261904Y-74190476D01*
X84309523Y-74095238D01*
X84404761Y-74000000D01*
X84547619Y-73952380D01*
X84642857Y-73952380D01*
X84785714Y-74000000D01*
X84833333Y-74047619D01*
X85214285Y-74047619D02*
X85261904Y-74000000D01*
X85357142Y-73952380D01*
X85595238Y-73952380D01*
X85690476Y-74000000D01*
X85738095Y-74047619D01*
X85785714Y-74142857D01*
X85785714Y-74238095D01*
X85738095Y-74380952D01*
X85166666Y-74952380D01*
X85785714Y-74952380D01*
X84833333Y-87857142D02*
X84785714Y-87904761D01*
X84642857Y-87952380D01*
X84547619Y-87952380D01*
X84404761Y-87904761D01*
X84309523Y-87809523D01*
X84261904Y-87714285D01*
X84214285Y-87523809D01*
X84214285Y-87380952D01*
X84261904Y-87190476D01*
X84309523Y-87095238D01*
X84404761Y-87000000D01*
X84547619Y-86952380D01*
X84642857Y-86952380D01*
X84785714Y-87000000D01*
X84833333Y-87047619D01*
X85785714Y-87952380D02*
X85214285Y-87952380D01*
X85500000Y-87952380D02*
X85500000Y-86952380D01*
X85404761Y-87095238D01*
X85309523Y-87190476D01*
X85214285Y-87238095D01*
X84833333Y-58957142D02*
X84785714Y-59004761D01*
X84642857Y-59052380D01*
X84547619Y-59052380D01*
X84404761Y-59004761D01*
X84309523Y-58909523D01*
X84261904Y-58814285D01*
X84214285Y-58623809D01*
X84214285Y-58480952D01*
X84261904Y-58290476D01*
X84309523Y-58195238D01*
X84404761Y-58100000D01*
X84547619Y-58052380D01*
X84642857Y-58052380D01*
X84785714Y-58100000D01*
X84833333Y-58147619D01*
X85166666Y-58052380D02*
X85785714Y-58052380D01*
X85452380Y-58433333D01*
X85595238Y-58433333D01*
X85690476Y-58480952D01*
X85738095Y-58528571D01*
X85785714Y-58623809D01*
X85785714Y-58861904D01*
X85738095Y-58957142D01*
X85690476Y-59004761D01*
X85595238Y-59052380D01*
X85309523Y-59052380D01*
X85214285Y-59004761D01*
X85166666Y-58957142D01*
X87333333Y-62452380D02*
X87000000Y-61976190D01*
X86761904Y-62452380D02*
X86761904Y-61452380D01*
X87142857Y-61452380D01*
X87238095Y-61500000D01*
X87285714Y-61547619D01*
X87333333Y-61642857D01*
X87333333Y-61785714D01*
X87285714Y-61880952D01*
X87238095Y-61928571D01*
X87142857Y-61976190D01*
X86761904Y-61976190D01*
X87904761Y-61880952D02*
X87809523Y-61833333D01*
X87761904Y-61785714D01*
X87714285Y-61690476D01*
X87714285Y-61642857D01*
X87761904Y-61547619D01*
X87809523Y-61500000D01*
X87904761Y-61452380D01*
X88095238Y-61452380D01*
X88190476Y-61500000D01*
X88238095Y-61547619D01*
X88285714Y-61642857D01*
X88285714Y-61690476D01*
X88238095Y-61785714D01*
X88190476Y-61833333D01*
X88095238Y-61880952D01*
X87904761Y-61880952D01*
X87809523Y-61928571D01*
X87761904Y-61976190D01*
X87714285Y-62071428D01*
X87714285Y-62261904D01*
X87761904Y-62357142D01*
X87809523Y-62404761D01*
X87904761Y-62452380D01*
X88095238Y-62452380D01*
X88190476Y-62404761D01*
X88238095Y-62357142D01*
X88285714Y-62261904D01*
X88285714Y-62071428D01*
X88238095Y-61976190D01*
X88190476Y-61928571D01*
X88095238Y-61880952D01*
X95333333Y-71857142D02*
X95285714Y-71904761D01*
X95142857Y-71952380D01*
X95047619Y-71952380D01*
X94904761Y-71904761D01*
X94809523Y-71809523D01*
X94761904Y-71714285D01*
X94714285Y-71523809D01*
X94714285Y-71380952D01*
X94761904Y-71190476D01*
X94809523Y-71095238D01*
X94904761Y-71000000D01*
X95047619Y-70952380D01*
X95142857Y-70952380D01*
X95285714Y-71000000D01*
X95333333Y-71047619D01*
X96190476Y-71285714D02*
X96190476Y-71952380D01*
X95952380Y-70904761D02*
X95714285Y-71619047D01*
X96333333Y-71619047D01*
X93333333Y-71952380D02*
X93000000Y-71476190D01*
X92761904Y-71952380D02*
X92761904Y-70952380D01*
X93142857Y-70952380D01*
X93238095Y-71000000D01*
X93285714Y-71047619D01*
X93333333Y-71142857D01*
X93333333Y-71285714D01*
X93285714Y-71380952D01*
X93238095Y-71428571D01*
X93142857Y-71476190D01*
X92761904Y-71476190D01*
X93666666Y-70952380D02*
X94333333Y-70952380D01*
X93904761Y-71952380D01*
X112904761Y-72047619D02*
X112809523Y-72000000D01*
X112714285Y-71904761D01*
X112571428Y-71761904D01*
X112476190Y-71714285D01*
X112380952Y-71714285D01*
X112428571Y-71952380D02*
X112333333Y-71904761D01*
X112238095Y-71809523D01*
X112190476Y-71619047D01*
X112190476Y-71285714D01*
X112238095Y-71095238D01*
X112333333Y-71000000D01*
X112428571Y-70952380D01*
X112619047Y-70952380D01*
X112714285Y-71000000D01*
X112809523Y-71095238D01*
X112857142Y-71285714D01*
X112857142Y-71619047D01*
X112809523Y-71809523D01*
X112714285Y-71904761D01*
X112619047Y-71952380D01*
X112428571Y-71952380D01*
X113761904Y-70952380D02*
X113285714Y-70952380D01*
X113238095Y-71428571D01*
X113285714Y-71380952D01*
X113380952Y-71333333D01*
X113619047Y-71333333D01*
X113714285Y-71380952D01*
X113761904Y-71428571D01*
X113809523Y-71523809D01*
X113809523Y-71761904D01*
X113761904Y-71857142D01*
X113714285Y-71904761D01*
X113619047Y-71952380D01*
X113380952Y-71952380D01*
X113285714Y-71904761D01*
X113238095Y-71857142D01*
X98404761Y-72047619D02*
X98309523Y-72000000D01*
X98214285Y-71904761D01*
X98071428Y-71761904D01*
X97976190Y-71714285D01*
X97880952Y-71714285D01*
X97928571Y-71952380D02*
X97833333Y-71904761D01*
X97738095Y-71809523D01*
X97690476Y-71619047D01*
X97690476Y-71285714D01*
X97738095Y-71095238D01*
X97833333Y-71000000D01*
X97928571Y-70952380D01*
X98119047Y-70952380D01*
X98214285Y-71000000D01*
X98309523Y-71095238D01*
X98357142Y-71285714D01*
X98357142Y-71619047D01*
X98309523Y-71809523D01*
X98214285Y-71904761D01*
X98119047Y-71952380D01*
X97928571Y-71952380D01*
X99309523Y-71952380D02*
X98738095Y-71952380D01*
X99023809Y-71952380D02*
X99023809Y-70952380D01*
X98928571Y-71095238D01*
X98833333Y-71190476D01*
X98738095Y-71238095D01*
X83738095Y-80452380D02*
X83738095Y-81261904D01*
X83785714Y-81357142D01*
X83833333Y-81404761D01*
X83928571Y-81452380D01*
X84119047Y-81452380D01*
X84214285Y-81404761D01*
X84261904Y-81357142D01*
X84309523Y-81261904D01*
X84309523Y-80452380D01*
X84738095Y-80547619D02*
X84785714Y-80500000D01*
X84880952Y-80452380D01*
X85119047Y-80452380D01*
X85214285Y-80500000D01*
X85261904Y-80547619D01*
X85309523Y-80642857D01*
X85309523Y-80738095D01*
X85261904Y-80880952D01*
X84690476Y-81452380D01*
X85309523Y-81452380D01*
X112333333Y-80452380D02*
X112000000Y-79976190D01*
X111761904Y-80452380D02*
X111761904Y-79452380D01*
X112142857Y-79452380D01*
X112238095Y-79500000D01*
X112285714Y-79547619D01*
X112333333Y-79642857D01*
X112333333Y-79785714D01*
X112285714Y-79880952D01*
X112238095Y-79928571D01*
X112142857Y-79976190D01*
X111761904Y-79976190D01*
X113238095Y-79452380D02*
X112761904Y-79452380D01*
X112714285Y-79928571D01*
X112761904Y-79880952D01*
X112857142Y-79833333D01*
X113095238Y-79833333D01*
X113190476Y-79880952D01*
X113238095Y-79928571D01*
X113285714Y-80023809D01*
X113285714Y-80261904D01*
X113238095Y-80357142D01*
X113190476Y-80404761D01*
X113095238Y-80452380D01*
X112857142Y-80452380D01*
X112761904Y-80404761D01*
X112714285Y-80357142D01*
X100333333Y-80452380D02*
X100000000Y-79976190D01*
X99761904Y-80452380D02*
X99761904Y-79452380D01*
X100142857Y-79452380D01*
X100238095Y-79500000D01*
X100285714Y-79547619D01*
X100333333Y-79642857D01*
X100333333Y-79785714D01*
X100285714Y-79880952D01*
X100238095Y-79928571D01*
X100142857Y-79976190D01*
X99761904Y-79976190D01*
X101285714Y-80452380D02*
X100714285Y-80452380D01*
X101000000Y-80452380D02*
X101000000Y-79452380D01*
X100904761Y-79595238D01*
X100809523Y-79690476D01*
X100714285Y-79738095D01*
X95333333Y-80452380D02*
X95000000Y-79976190D01*
X94761904Y-80452380D02*
X94761904Y-79452380D01*
X95142857Y-79452380D01*
X95238095Y-79500000D01*
X95285714Y-79547619D01*
X95333333Y-79642857D01*
X95333333Y-79785714D01*
X95285714Y-79880952D01*
X95238095Y-79928571D01*
X95142857Y-79976190D01*
X94761904Y-79976190D01*
X96190476Y-79452380D02*
X96000000Y-79452380D01*
X95904761Y-79500000D01*
X95857142Y-79547619D01*
X95761904Y-79690476D01*
X95714285Y-79880952D01*
X95714285Y-80261904D01*
X95761904Y-80357142D01*
X95809523Y-80404761D01*
X95904761Y-80452380D01*
X96095238Y-80452380D01*
X96190476Y-80404761D01*
X96238095Y-80357142D01*
X96285714Y-80261904D01*
X96285714Y-80023809D01*
X96238095Y-79928571D01*
X96190476Y-79880952D01*
X96095238Y-79833333D01*
X95904761Y-79833333D01*
X95809523Y-79880952D01*
X95761904Y-79928571D01*
X95714285Y-80023809D01*
X111761904Y-85952380D02*
X111761904Y-84952380D01*
X112000000Y-84952380D01*
X112142857Y-85000000D01*
X112238095Y-85095238D01*
X112285714Y-85190476D01*
X112333333Y-85380952D01*
X112333333Y-85523809D01*
X112285714Y-85714285D01*
X112238095Y-85809523D01*
X112142857Y-85904761D01*
X112000000Y-85952380D01*
X111761904Y-85952380D01*
X113238095Y-84952380D02*
X112761904Y-84952380D01*
X112714285Y-85428571D01*
X112761904Y-85380952D01*
X112857142Y-85333333D01*
X113095238Y-85333333D01*
X113190476Y-85380952D01*
X113238095Y-85428571D01*
X113285714Y-85523809D01*
X113285714Y-85761904D01*
X113238095Y-85857142D01*
X113190476Y-85904761D01*
X113095238Y-85952380D01*
X112857142Y-85952380D01*
X112761904Y-85904761D01*
X112714285Y-85857142D01*
X99761904Y-85952380D02*
X99761904Y-84952380D01*
X100000000Y-84952380D01*
X100142857Y-85000000D01*
X100238095Y-85095238D01*
X100285714Y-85190476D01*
X100333333Y-85380952D01*
X100333333Y-85523809D01*
X100285714Y-85714285D01*
X100238095Y-85809523D01*
X100142857Y-85904761D01*
X100000000Y-85952380D01*
X99761904Y-85952380D01*
X101285714Y-85952380D02*
X100714285Y-85952380D01*
X101000000Y-85952380D02*
X101000000Y-84952380D01*
X100904761Y-85095238D01*
X100809523Y-85190476D01*
X100714285Y-85238095D01*
%LPC*%
D12*
G36*
X98750000Y-59750000D02*
G01*
X97300000Y-59750000D01*
X97300000Y-58900000D01*
X97900000Y-58300000D01*
X98750000Y-58300000D01*
X98750000Y-59750000D01*
G37*
D13*
X95200000Y-56100000D03*
X96000000Y-56100000D03*
X96800000Y-56100000D03*
X97600000Y-56100000D03*
X98400000Y-56100000D03*
X99200000Y-56100000D03*
X100000000Y-56100000D03*
X100800000Y-56100000D03*
X101600000Y-56100000D03*
X102400000Y-56100000D03*
X103200000Y-56100000D03*
X104000000Y-56100000D03*
X104800000Y-56100000D03*
X104800000Y-65900000D03*
X104000000Y-65900000D03*
X103200000Y-65900000D03*
X102400000Y-65900000D03*
X101600000Y-65900000D03*
X100800000Y-65900000D03*
X100000000Y-65900000D03*
X99200000Y-65900000D03*
X98400000Y-65900000D03*
X97600000Y-65900000D03*
X96800000Y-65900000D03*
X96000000Y-65900000D03*
X95200000Y-65900000D03*
D14*
X94050000Y-56050000D03*
X94050000Y-65950000D03*
X105950000Y-65950000D03*
X105950000Y-56050000D03*
D15*
X105900000Y-57000000D03*
X105900000Y-57800000D03*
X105900000Y-58600000D03*
X105900000Y-59400000D03*
X105900000Y-60200000D03*
X105900000Y-61000000D03*
X105900000Y-61800000D03*
X105900000Y-62600000D03*
X105900000Y-63400000D03*
X105900000Y-64200000D03*
X105900000Y-65000000D03*
X94100000Y-65000000D03*
X94100000Y-64200000D03*
X94100000Y-63400000D03*
X94100000Y-62600000D03*
X94100000Y-61800000D03*
X94100000Y-61000000D03*
X94100000Y-60200000D03*
X94100000Y-59400000D03*
X94100000Y-58600000D03*
X94100000Y-57800000D03*
X94100000Y-57000000D03*
D16*
X101975000Y-59025000D03*
X100000000Y-59025000D03*
X98025000Y-61000000D03*
X98025000Y-62975000D03*
X100000000Y-62975000D03*
X101975000Y-62975000D03*
X101975000Y-61000000D03*
X100000000Y-61000000D03*
D17*
X117000000Y-91500000D03*
X117000000Y-88960000D03*
X89500000Y-69000000D03*
X86960000Y-69000000D03*
X89500000Y-91500000D03*
X86960000Y-91500000D03*
X97500000Y-85500000D03*
X117000000Y-81270000D03*
X117000000Y-78730000D03*
G36*
G01*
X88625000Y-73575000D02*
X88625000Y-75425000D01*
G75*
G02*
X88375000Y-75675000I-250000J0D01*
G01*
X87375000Y-75675000D01*
G75*
G02*
X87125000Y-75425000I0J250000D01*
G01*
X87125000Y-73575000D01*
G75*
G02*
X87375000Y-73325000I250000J0D01*
G01*
X88375000Y-73325000D01*
G75*
G02*
X88625000Y-73575000I0J-250000D01*
G01*
G37*
G36*
G01*
X91875000Y-73575000D02*
X91875000Y-75425000D01*
G75*
G02*
X91625000Y-75675000I-250000J0D01*
G01*
X90625000Y-75675000D01*
G75*
G02*
X90375000Y-75425000I0J250000D01*
G01*
X90375000Y-73575000D01*
G75*
G02*
X90625000Y-73325000I250000J0D01*
G01*
X91625000Y-73325000D01*
G75*
G02*
X91875000Y-73575000I0J-250000D01*
G01*
G37*
G36*
G01*
X88625000Y-86575000D02*
X88625000Y-88425000D01*
G75*
G02*
X88375000Y-88675000I-250000J0D01*
G01*
X87375000Y-88675000D01*
G75*
G02*
X87125000Y-88425000I0J250000D01*
G01*
X87125000Y-86575000D01*
G75*
G02*
X87375000Y-86325000I250000J0D01*
G01*
X88375000Y-86325000D01*
G75*
G02*
X88625000Y-86575000I0J-250000D01*
G01*
G37*
G36*
G01*
X91875000Y-86575000D02*
X91875000Y-88425000D01*
G75*
G02*
X91625000Y-88675000I-250000J0D01*
G01*
X90625000Y-88675000D01*
G75*
G02*
X90375000Y-88425000I0J250000D01*
G01*
X90375000Y-86575000D01*
G75*
G02*
X90625000Y-86325000I250000J0D01*
G01*
X91625000Y-86325000D01*
G75*
G02*
X91875000Y-86575000I0J-250000D01*
G01*
G37*
G36*
G01*
X88625000Y-57675000D02*
X88625000Y-59525000D01*
G75*
G02*
X88375000Y-59775000I-250000J0D01*
G01*
X87375000Y-59775000D01*
G75*
G02*
X87125000Y-59525000I0J250000D01*
G01*
X87125000Y-57675000D01*
G75*
G02*
X87375000Y-57425000I250000J0D01*
G01*
X88375000Y-57425000D01*
G75*
G02*
X88625000Y-57675000I0J-250000D01*
G01*
G37*
G36*
G01*
X91875000Y-57675000D02*
X91875000Y-59525000D01*
G75*
G02*
X91625000Y-59775000I-250000J0D01*
G01*
X90625000Y-59775000D01*
G75*
G02*
X90375000Y-59525000I0J250000D01*
G01*
X90375000Y-57675000D01*
G75*
G02*
X90625000Y-57425000I250000J0D01*
G01*
X91625000Y-57425000D01*
G75*
G02*
X91875000Y-57675000I0J-250000D01*
G01*
G37*
X117000000Y-58460000D03*
X117000000Y-61000000D03*
X117000000Y-63540000D03*
G36*
G01*
X89987500Y-61262500D02*
X89987500Y-61737500D01*
G75*
G02*
X89750000Y-61975000I-237500J0D01*
G01*
X89250000Y-61975000D01*
G75*
G02*
X89012500Y-61737500I0J237500D01*
G01*
X89012500Y-61262500D01*
G75*
G02*
X89250000Y-61025000I237500J0D01*
G01*
X89750000Y-61025000D01*
G75*
G02*
X89987500Y-61262500I0J-237500D01*
G01*
G37*
G36*
G01*
X91812500Y-61262500D02*
X91812500Y-61737500D01*
G75*
G02*
X91575000Y-61975000I-237500J0D01*
G01*
X91075000Y-61975000D01*
G75*
G02*
X90837500Y-61737500I0J237500D01*
G01*
X90837500Y-61262500D01*
G75*
G02*
X91075000Y-61025000I237500J0D01*
G01*
X91575000Y-61025000D01*
G75*
G02*
X91812500Y-61262500I0J-237500D01*
G01*
G37*
G36*
G01*
X95262500Y-74825000D02*
X95737500Y-74825000D01*
G75*
G02*
X95975000Y-75062500I0J-237500D01*
G01*
X95975000Y-75662500D01*
G75*
G02*
X95737500Y-75900000I-237500J0D01*
G01*
X95262500Y-75900000D01*
G75*
G02*
X95025000Y-75662500I0J237500D01*
G01*
X95025000Y-75062500D01*
G75*
G02*
X95262500Y-74825000I237500J0D01*
G01*
G37*
G36*
G01*
X95262500Y-73100000D02*
X95737500Y-73100000D01*
G75*
G02*
X95975000Y-73337500I0J-237500D01*
G01*
X95975000Y-73937500D01*
G75*
G02*
X95737500Y-74175000I-237500J0D01*
G01*
X95262500Y-74175000D01*
G75*
G02*
X95025000Y-73937500I0J237500D01*
G01*
X95025000Y-73337500D01*
G75*
G02*
X95262500Y-73100000I237500J0D01*
G01*
G37*
G36*
G01*
X93737500Y-74075000D02*
X93262500Y-74075000D01*
G75*
G02*
X93025000Y-73837500I0J237500D01*
G01*
X93025000Y-73337500D01*
G75*
G02*
X93262500Y-73100000I237500J0D01*
G01*
X93737500Y-73100000D01*
G75*
G02*
X93975000Y-73337500I0J-237500D01*
G01*
X93975000Y-73837500D01*
G75*
G02*
X93737500Y-74075000I-237500J0D01*
G01*
G37*
G36*
G01*
X93737500Y-75900000D02*
X93262500Y-75900000D01*
G75*
G02*
X93025000Y-75662500I0J237500D01*
G01*
X93025000Y-75162500D01*
G75*
G02*
X93262500Y-74925000I237500J0D01*
G01*
X93737500Y-74925000D01*
G75*
G02*
X93975000Y-75162500I0J-237500D01*
G01*
X93975000Y-75662500D01*
G75*
G02*
X93737500Y-75900000I-237500J0D01*
G01*
G37*
D18*
X114000000Y-74500000D03*
X112000000Y-75450000D03*
X112000000Y-73550000D03*
X110500000Y-74500000D03*
X108500000Y-75450000D03*
X108500000Y-73550000D03*
X106500000Y-74500000D03*
X104500000Y-75450000D03*
X104500000Y-73550000D03*
X103000000Y-74500000D03*
X101000000Y-75450000D03*
X101000000Y-73550000D03*
X99500000Y-74500000D03*
X97500000Y-75450000D03*
X97500000Y-73550000D03*
D19*
X87200000Y-84150000D03*
X91800000Y-84150000D03*
X89500000Y-84150000D03*
D20*
X89500000Y-77850000D03*
G36*
G01*
X110737500Y-79575000D02*
X110262500Y-79575000D01*
G75*
G02*
X110025000Y-79337500I0J237500D01*
G01*
X110025000Y-78837500D01*
G75*
G02*
X110262500Y-78600000I237500J0D01*
G01*
X110737500Y-78600000D01*
G75*
G02*
X110975000Y-78837500I0J-237500D01*
G01*
X110975000Y-79337500D01*
G75*
G02*
X110737500Y-79575000I-237500J0D01*
G01*
G37*
G36*
G01*
X110737500Y-81400000D02*
X110262500Y-81400000D01*
G75*
G02*
X110025000Y-81162500I0J237500D01*
G01*
X110025000Y-80662500D01*
G75*
G02*
X110262500Y-80425000I237500J0D01*
G01*
X110737500Y-80425000D01*
G75*
G02*
X110975000Y-80662500I0J-237500D01*
G01*
X110975000Y-81162500D01*
G75*
G02*
X110737500Y-81400000I-237500J0D01*
G01*
G37*
G36*
G01*
X108737500Y-79575000D02*
X108262500Y-79575000D01*
G75*
G02*
X108025000Y-79337500I0J237500D01*
G01*
X108025000Y-78837500D01*
G75*
G02*
X108262500Y-78600000I237500J0D01*
G01*
X108737500Y-78600000D01*
G75*
G02*
X108975000Y-78837500I0J-237500D01*
G01*
X108975000Y-79337500D01*
G75*
G02*
X108737500Y-79575000I-237500J0D01*
G01*
G37*
G36*
G01*
X108737500Y-81400000D02*
X108262500Y-81400000D01*
G75*
G02*
X108025000Y-81162500I0J237500D01*
G01*
X108025000Y-80662500D01*
G75*
G02*
X108262500Y-80425000I237500J0D01*
G01*
X108737500Y-80425000D01*
G75*
G02*
X108975000Y-80662500I0J-237500D01*
G01*
X108975000Y-81162500D01*
G75*
G02*
X108737500Y-81400000I-237500J0D01*
G01*
G37*
G36*
G01*
X106737500Y-79575000D02*
X106262500Y-79575000D01*
G75*
G02*
X106025000Y-79337500I0J237500D01*
G01*
X106025000Y-78837500D01*
G75*
G02*
X106262500Y-78600000I237500J0D01*
G01*
X106737500Y-78600000D01*
G75*
G02*
X106975000Y-78837500I0J-237500D01*
G01*
X106975000Y-79337500D01*
G75*
G02*
X106737500Y-79575000I-237500J0D01*
G01*
G37*
G36*
G01*
X106737500Y-81400000D02*
X106262500Y-81400000D01*
G75*
G02*
X106025000Y-81162500I0J237500D01*
G01*
X106025000Y-80662500D01*
G75*
G02*
X106262500Y-80425000I237500J0D01*
G01*
X106737500Y-80425000D01*
G75*
G02*
X106975000Y-80662500I0J-237500D01*
G01*
X106975000Y-81162500D01*
G75*
G02*
X106737500Y-81400000I-237500J0D01*
G01*
G37*
G36*
G01*
X104737500Y-79575000D02*
X104262500Y-79575000D01*
G75*
G02*
X104025000Y-79337500I0J237500D01*
G01*
X104025000Y-78837500D01*
G75*
G02*
X104262500Y-78600000I237500J0D01*
G01*
X104737500Y-78600000D01*
G75*
G02*
X104975000Y-78837500I0J-237500D01*
G01*
X104975000Y-79337500D01*
G75*
G02*
X104737500Y-79575000I-237500J0D01*
G01*
G37*
G36*
G01*
X104737500Y-81400000D02*
X104262500Y-81400000D01*
G75*
G02*
X104025000Y-81162500I0J237500D01*
G01*
X104025000Y-80662500D01*
G75*
G02*
X104262500Y-80425000I237500J0D01*
G01*
X104737500Y-80425000D01*
G75*
G02*
X104975000Y-80662500I0J-237500D01*
G01*
X104975000Y-81162500D01*
G75*
G02*
X104737500Y-81400000I-237500J0D01*
G01*
G37*
G36*
G01*
X102737500Y-79575000D02*
X102262500Y-79575000D01*
G75*
G02*
X102025000Y-79337500I0J237500D01*
G01*
X102025000Y-78837500D01*
G75*
G02*
X102262500Y-78600000I237500J0D01*
G01*
X102737500Y-78600000D01*
G75*
G02*
X102975000Y-78837500I0J-237500D01*
G01*
X102975000Y-79337500D01*
G75*
G02*
X102737500Y-79575000I-237500J0D01*
G01*
G37*
G36*
G01*
X102737500Y-81400000D02*
X102262500Y-81400000D01*
G75*
G02*
X102025000Y-81162500I0J237500D01*
G01*
X102025000Y-80662500D01*
G75*
G02*
X102262500Y-80425000I237500J0D01*
G01*
X102737500Y-80425000D01*
G75*
G02*
X102975000Y-80662500I0J-237500D01*
G01*
X102975000Y-81162500D01*
G75*
G02*
X102737500Y-81400000I-237500J0D01*
G01*
G37*
G36*
G01*
X97262500Y-80425000D02*
X97737500Y-80425000D01*
G75*
G02*
X97975000Y-80662500I0J-237500D01*
G01*
X97975000Y-81162500D01*
G75*
G02*
X97737500Y-81400000I-237500J0D01*
G01*
X97262500Y-81400000D01*
G75*
G02*
X97025000Y-81162500I0J237500D01*
G01*
X97025000Y-80662500D01*
G75*
G02*
X97262500Y-80425000I237500J0D01*
G01*
G37*
G36*
G01*
X97262500Y-78600000D02*
X97737500Y-78600000D01*
G75*
G02*
X97975000Y-78837500I0J-237500D01*
G01*
X97975000Y-79337500D01*
G75*
G02*
X97737500Y-79575000I-237500J0D01*
G01*
X97262500Y-79575000D01*
G75*
G02*
X97025000Y-79337500I0J237500D01*
G01*
X97025000Y-78837500D01*
G75*
G02*
X97262500Y-78600000I237500J0D01*
G01*
G37*
D21*
X97100000Y-93237500D03*
X102900000Y-93237500D03*
D22*
X103500000Y-93237500D03*
X96500000Y-93237500D03*
D23*
X99000000Y-93237500D03*
D24*
X102500000Y-90537500D03*
D25*
X100000000Y-90537500D03*
X100650000Y-90537500D03*
X101300000Y-90537500D03*
X98700000Y-90537500D03*
X99350000Y-90537500D03*
D24*
X97500000Y-90537500D03*
D23*
X101000000Y-93237500D03*
G36*
G01*
X110099999Y-85800000D02*
X110900001Y-85800000D01*
G75*
G02*
X111150000Y-86049999I0J-249999D01*
G01*
X111150000Y-86875001D01*
G75*
G02*
X110900001Y-87125000I-249999J0D01*
G01*
X110099999Y-87125000D01*
G75*
G02*
X109850000Y-86875001I0J249999D01*
G01*
X109850000Y-86049999D01*
G75*
G02*
X110099999Y-85800000I249999J0D01*
G01*
G37*
G36*
G01*
X110099999Y-83875000D02*
X110900001Y-83875000D01*
G75*
G02*
X111150000Y-84124999I0J-249999D01*
G01*
X111150000Y-84950001D01*
G75*
G02*
X110900001Y-85200000I-249999J0D01*
G01*
X110099999Y-85200000D01*
G75*
G02*
X109850000Y-84950001I0J249999D01*
G01*
X109850000Y-84124999D01*
G75*
G02*
X110099999Y-83875000I249999J0D01*
G01*
G37*
G36*
G01*
X108099999Y-85800000D02*
X108900001Y-85800000D01*
G75*
G02*
X109150000Y-86049999I0J-249999D01*
G01*
X109150000Y-86875001D01*
G75*
G02*
X108900001Y-87125000I-249999J0D01*
G01*
X108099999Y-87125000D01*
G75*
G02*
X107850000Y-86875001I0J249999D01*
G01*
X107850000Y-86049999D01*
G75*
G02*
X108099999Y-85800000I249999J0D01*
G01*
G37*
G36*
G01*
X108099999Y-83875000D02*
X108900001Y-83875000D01*
G75*
G02*
X109150000Y-84124999I0J-249999D01*
G01*
X109150000Y-84950001D01*
G75*
G02*
X108900001Y-85200000I-249999J0D01*
G01*
X108099999Y-85200000D01*
G75*
G02*
X107850000Y-84950001I0J249999D01*
G01*
X107850000Y-84124999D01*
G75*
G02*
X108099999Y-83875000I249999J0D01*
G01*
G37*
G36*
G01*
X106099999Y-85800000D02*
X106900001Y-85800000D01*
G75*
G02*
X107150000Y-86049999I0J-249999D01*
G01*
X107150000Y-86875001D01*
G75*
G02*
X106900001Y-87125000I-249999J0D01*
G01*
X106099999Y-87125000D01*
G75*
G02*
X105850000Y-86875001I0J249999D01*
G01*
X105850000Y-86049999D01*
G75*
G02*
X106099999Y-85800000I249999J0D01*
G01*
G37*
G36*
G01*
X106099999Y-83875000D02*
X106900001Y-83875000D01*
G75*
G02*
X107150000Y-84124999I0J-249999D01*
G01*
X107150000Y-84950001D01*
G75*
G02*
X106900001Y-85200000I-249999J0D01*
G01*
X106099999Y-85200000D01*
G75*
G02*
X105850000Y-84950001I0J249999D01*
G01*
X105850000Y-84124999D01*
G75*
G02*
X106099999Y-83875000I249999J0D01*
G01*
G37*
G36*
G01*
X104099999Y-85800000D02*
X104900001Y-85800000D01*
G75*
G02*
X105150000Y-86049999I0J-249999D01*
G01*
X105150000Y-86875001D01*
G75*
G02*
X104900001Y-87125000I-249999J0D01*
G01*
X104099999Y-87125000D01*
G75*
G02*
X103850000Y-86875001I0J249999D01*
G01*
X103850000Y-86049999D01*
G75*
G02*
X104099999Y-85800000I249999J0D01*
G01*
G37*
G36*
G01*
X104099999Y-83875000D02*
X104900001Y-83875000D01*
G75*
G02*
X105150000Y-84124999I0J-249999D01*
G01*
X105150000Y-84950001D01*
G75*
G02*
X104900001Y-85200000I-249999J0D01*
G01*
X104099999Y-85200000D01*
G75*
G02*
X103850000Y-84950001I0J249999D01*
G01*
X103850000Y-84124999D01*
G75*
G02*
X104099999Y-83875000I249999J0D01*
G01*
G37*
G36*
G01*
X102099999Y-85800000D02*
X102900001Y-85800000D01*
G75*
G02*
X103150000Y-86049999I0J-249999D01*
G01*
X103150000Y-86875001D01*
G75*
G02*
X102900001Y-87125000I-249999J0D01*
G01*
X102099999Y-87125000D01*
G75*
G02*
X101850000Y-86875001I0J249999D01*
G01*
X101850000Y-86049999D01*
G75*
G02*
X102099999Y-85800000I249999J0D01*
G01*
G37*
G36*
G01*
X102099999Y-83875000D02*
X102900001Y-83875000D01*
G75*
G02*
X103150000Y-84124999I0J-249999D01*
G01*
X103150000Y-84950001D01*
G75*
G02*
X102900001Y-85200000I-249999J0D01*
G01*
X102099999Y-85200000D01*
G75*
G02*
X101850000Y-84950001I0J249999D01*
G01*
X101850000Y-84124999D01*
G75*
G02*
X102099999Y-83875000I249999J0D01*
G01*
G37*
M02*
