M48
; DRILL file {KiCad 5.1.10-88a1d61d58~90~ubuntu20.04.1} date Mon Nov  8 15:06:19 2021
; FORMAT={-:-/ absolute / metric / decimal}
; #@! TF.CreationDate,2021-11-08T15:06:19+08:00
; #@! TF.GenerationSoftware,Kicad,Pcbnew,5.1.10-88a1d61d58~90~ubuntu20.04.1
; #@! TF.FileFunction,Plated,1,2,PTH
FMAT,2
METRIC
T1C0.400
T2C0.600
T3C0.850
T4C1.000
%
G90
G05
T1
X81.0Y-56.0
X81.0Y-58.0
X81.0Y-60.0
X81.0Y-62.0
X81.0Y-64.0
X81.0Y-66.0
X81.0Y-68.0
X81.0Y-70.0
X81.0Y-72.0
X81.0Y-74.0
X81.0Y-76.0
X81.0Y-78.0
X81.0Y-80.0
X81.0Y-82.0
X81.0Y-84.0
X81.0Y-86.0
X81.0Y-88.0
X81.0Y-90.0
X81.0Y-92.0
X81.0Y-94.0
X82.5Y-56.0
X83.0Y-94.0
X84.0Y-56.0
X84.0Y-61.0
X85.0Y-64.0
X85.0Y-94.0
X85.5Y-56.0
X85.5Y-82.5
X85.5Y-83.5
X85.5Y-84.5
X85.5Y-85.5
X86.5Y-57.5
X86.5Y-58.5
X86.5Y-59.5
X86.5Y-60.5
X86.5Y-72.5
X86.5Y-73.5
X86.5Y-74.5
X86.5Y-75.5
X86.5Y-76.5
X86.5Y-82.5
X86.5Y-86.5
X86.5Y-87.5
X86.5Y-88.5
X87.0Y-56.0
X87.0Y-94.0
X87.5Y-60.5
X87.5Y-72.5
X88.5Y-56.0
X88.5Y-60.5
X88.5Y-72.5
X89.0Y-94.0
X90.0Y-56.0
X91.0Y-94.0
X91.5Y-56.0
X93.0Y-56.0
X93.0Y-57.0
X93.0Y-57.8
X93.0Y-65.0
X93.0Y-66.0
X93.0Y-70.0
X93.0Y-94.0
X94.0Y-67.0
X94.5Y-72.5
X95.5Y-76.5
X96.0Y-57.5
X96.0Y-59.0
X96.0Y-61.0
X96.0Y-63.0
X96.0Y-64.5
X96.8Y-67.0
X97.5Y-76.5
X98.0Y-57.5
X98.0Y-64.5
X98.7Y-89.3
X99.0Y-79.0
X99.5Y-72.5
X100.0Y-57.5
X100.0Y-64.5
X101.0Y-76.5
X101.3Y-89.3
X101.3Y-91.7
X101.5Y-71.5
X102.0Y-57.5
X102.0Y-64.5
X102.0Y-68.0
X102.0Y-69.5
X104.0Y-57.5
X104.0Y-59.0
X104.0Y-61.0
X104.0Y-63.0
X104.0Y-64.5
X104.5Y-76.5
X106.0Y-67.0
X107.0Y-56.0
X107.0Y-66.0
X107.0Y-94.0
X107.5Y-71.5
X108.0Y-59.5
X108.0Y-62.0
X108.5Y-76.5
X109.0Y-56.0
X109.0Y-94.0
X109.5Y-58.0
X111.0Y-56.0
X111.0Y-94.0
X111.5Y-69.0
X112.0Y-76.5
X112.0Y-82.5
X112.0Y-87.0
X112.5Y-59.0
X112.5Y-62.0
X113.0Y-56.0
X113.0Y-94.0
X115.0Y-56.0
X115.0Y-94.0
X117.0Y-56.0
X117.0Y-94.0
X119.0Y-56.0
X119.0Y-58.0
X119.0Y-60.0
X119.0Y-62.0
X119.0Y-64.0
X119.0Y-66.0
X119.0Y-68.0
X119.0Y-70.0
X119.0Y-72.0
X119.0Y-74.0
X119.0Y-76.0
X119.0Y-78.0
X119.0Y-80.0
X119.0Y-82.0
X119.0Y-84.0
X119.0Y-86.0
X119.0Y-88.0
X119.0Y-90.0
X119.0Y-92.0
X119.0Y-94.0
T3
X97.5Y-90.537
X102.5Y-90.537
T4
X86.96Y-69.0
X86.96Y-91.5
X89.5Y-69.0
X89.5Y-91.5
X97.5Y-85.5
X117.0Y-58.46
X117.0Y-61.0
X117.0Y-63.54
X117.0Y-78.73
X117.0Y-81.27
X117.0Y-88.96
X117.0Y-91.5
T2
X96.5Y-93.587G85X96.5Y-92.888
G05
X103.5Y-92.888G85X103.5Y-93.587
G05
T0
M30
